<?xml version="1.0" encoding="utf-8"?>
<!-- Generator: Adobe Illustrator 23.0.3, SVG Export Plug-In . SVG Version: 6.00 Build 0)  -->
<svg version="1.1" id="Livello_1" xmlns="http://www.w3.org/2000/svg" xmlns:xlink="http://www.w3.org/1999/xlink" x="0px" y="0px"
	 viewBox="0 0 255.1 255.1" style="enable-background:new 0 0 255.1 255.1;" xml:space="preserve">
<style type="text/css">
	.st0{fill-rule:evenodd;clip-rule:evenodd;fill:#9999FF;stroke:#999999;stroke-width:7.620000e-02;}
	.st1{fill-rule:evenodd;clip-rule:evenodd;fill:#E5E5E5;stroke:#999999;stroke-width:7.620000e-02;}
	.st2{fill:none;stroke:#999999;stroke-width:7.620000e-02;}
	.st3{fill:#F9F9F9;stroke:#000000;stroke-width:0.75;stroke-miterlimit:10;}
	.st4{font-family:'AdineKirnberg-Regular';}
	.st5{font-size:26.6959px;}
	.st6{letter-spacing:1.3;}
	.st7{fill:none;}
</style>
<g id="Livello_x0020_1">
	<g id="_125489632">
		<g>
			<polygon id="_128172240" class="st0" points="114,123.5 77.5,108.4 82.4,120.2 			"/>
			<polygon id="_128173248" class="st1" points="114,123.5 77.5,108.4 89.4,103.5 			"/>
		</g>
		<g>
			<polygon id="_128177016" class="st0" points="62.6,145 77.7,108.5 65.9,113.4 			"/>
			<polygon id="_128174112" class="st1" points="62.6,145 77.7,108.5 82.6,120.3 			"/>
		</g>
		<g>
			<polygon id="_128173872" class="st0" points="41.3,93.3 77.8,108.4 72.9,96.6 			"/>
			<polygon id="_125492992" class="st1" points="41.3,93.3 77.8,108.4 66,113.3 			"/>
		</g>
		<g>
			<polygon id="_125491480" class="st0" points="92.8,72 77.7,108.5 89.5,103.6 			"/>
			<polygon id="_125490280" class="st1" points="92.8,72 77.7,108.5 72.8,96.7 			"/>
		</g>
		<g>
			<polygon id="_125489728" class="st0" points="41.1,123.5 77.5,108.4 72.7,120.2 			"/>
			<polygon id="_125490400" class="st1" points="41.1,123.5 77.5,108.4 65.7,103.5 			"/>
		</g>
		<line id="_125491384" class="st2" x1="92.8" y1="145" x2="77.7" y2="108.5"/>
		<g>
			<polygon id="_125491456" class="st0" points="92.8,145 77.7,108.5 89.5,113.4 			"/>
			<polygon id="_125489848" class="st1" points="92.8,145 77.7,108.5 72.8,120.3 			"/>
		</g>
		<g>
			<polygon id="_125491360" class="st0" points="114.2,93.4 77.7,108.6 82.6,96.7 			"/>
			<polygon id="_125491336" class="st1" points="114.2,93.4 77.7,108.6 89.5,113.5 			"/>
		</g>
		<g>
			<polygon id="_125492704" class="st0" points="62.6,72 77.7,108.5 65.9,103.6 			"/>
			<polygon id="_125491120" class="st1" points="62.6,72 77.7,108.5 82.6,96.7 			"/>
		</g>
		<g>
			<polygon id="_125490184" class="st0" points="112.5,73.5 77.5,108.4 93.5,108.4 			"/>
			<polygon id="_125490376" class="st1" points="112.5,73.5 77.5,108.4 77.5,92.4 			"/>
		</g>
		<g>
			<polygon id="_125492416" class="st0" points="112.7,143.3 77.8,108.4 77.8,124.4 			"/>
			<polygon id="_125489776" class="st1" points="112.7,143.3 77.8,108.4 93.7,108.4 			"/>
		</g>
		<g>
			<polygon id="_125492008" class="st0" points="42.8,143.4 77.7,108.5 61.8,108.5 			"/>
			<polygon id="_125492536" class="st1" points="42.8,143.4 77.7,108.5 77.7,124.5 			"/>
		</g>
		<g>
			<polygon id="_125492056" class="st0" points="42.8,73.6 77.7,108.5 77.7,92.5 			"/>
			<polygon id="_125492080" class="st1" points="42.8,73.6 77.7,108.5 61.8,108.5 			"/>
		</g>
		<g>
			<polygon id="_125490040" class="st0" points="77.7,46.8 77.7,108.6 91.8,94.4 			"/>
			<polygon id="_125490544" class="st1" points="77.7,46.8 77.7,108.6 63.6,94.4 			"/>
		</g>
		<g>
			<polygon id="_125492344" class="st0" points="139.4,108.5 77.7,108.5 91.8,122.6 			"/>
			<polygon id="_125489872" class="st1" points="139.4,108.5 77.7,108.5 91.8,94.3 			"/>
		</g>
		<g>
			<polygon id="_125492200" class="st0" points="77.8,170.1 77.8,108.4 63.6,122.5 			"/>
			<polygon id="_125492176" class="st1" points="77.8,170.1 77.8,108.4 91.9,122.5 			"/>
		</g>
		<g>
			<polygon id="_125492800" class="st0" points="16,108.5 77.7,108.5 63.6,94.3 			"/>
			<polygon id="_125493424" class="st1" points="16,108.5 77.7,108.5 63.6,122.6 			"/>
		</g>
	</g>
	<text transform="matrix(0.7755 0 0 1 141.7412 104.9294)"><tspan x="0" y="0" class="st3 st4 st5 st6">B&amp;B </tspan><tspan x="0" y="32" class="st3 st4 st5 st6">De’ Tirreni</tspan></text>
	<rect x="201" y="130.1" class="st7" width="5.9" height="1.2"/>
</g>
</svg>
