<?xml version="1.0" encoding="UTF-8"?>
<!DOCTYPE svg PUBLIC "-//W3C//DTD SVG 1.1//EN" "http://www.w3.org/Graphics/SVG/1.1/DTD/svg11.dtd">
<!-- Creator: CorelDRAW -->
<svg xmlns="http://www.w3.org/2000/svg" xml:space="preserve" width="90mm" height="90mm" style="shape-rendering:geometricPrecision; text-rendering:geometricPrecision; image-rendering:optimizeQuality; fill-rule:evenodd; clip-rule:evenodd"
viewBox="0 0 90 90"
 xmlns:xlink="http://www.w3.org/1999/xlink">
 <defs>
  <style type="text/css">
   <![CDATA[
    .str1 {stroke:#999999;stroke-width:0.0762}
    .str0 {stroke:#B2B2B2;stroke-width:0.0762}
    .fil0 {fill:none}
    .fil1 {fill:#9999FF}
    .fil2 {fill:#E5E5E5}
    .fil3 {fill:black;fill-rule:nonzero}
   ]]>
  </style>
 </defs>
 <g id="Livello_x0020_1">
  <metadata id="CorelCorpID_0Corel-Layer"/>
  <circle class="fil0 str0" cx="45" cy="45" r="31.5"/>
  <g id="_125489632">
   <g>
    <polygon id="_128172240" class="fil1 str1" points="65.5905,53.4887 44.8956,44.9166 47.6629,51.6149 "/>
    <polygon id="_128173248" class="fil2 str1" points="65.5905,53.4887 44.8956,44.9166 51.5888,42.137 "/>
   </g>
   <g>
    <polygon id="_128177016" class="fil1 str1" points="36.4101,65.6577 44.9822,44.9628 38.2839,47.7301 "/>
    <polygon id="_128174112" class="fil2 str1" points="36.4101,65.6577 44.9822,44.9628 47.7618,51.656 "/>
   </g>
   <g>
    <polygon id="_128173872" class="fil1 str1" points="24.3254,36.3389 45.0203,44.911 42.253,38.2127 "/>
    <polygon id="_125492992" class="fil2 str1" points="24.3254,36.3389 45.0203,44.911 38.3271,47.6906 "/>
   </g>
   <g>
    <polygon id="_125491480" class="fil1 str1" points="53.5721,24.265 45,44.9599 51.6983,42.1926 "/>
    <polygon id="_125490280" class="fil2 str1" points="53.5721,24.265 45,44.9599 42.2204,38.2667 "/>
   </g>
   <g>
    <polygon id="_125489728" class="fil1 str1" points="24.2007,53.4887 44.8956,44.9166 42.1283,51.6149 "/>
    <polygon id="_125490400" class="fil2 str1" points="24.2007,53.4887 44.8956,44.9166 38.2024,42.137 "/>
   </g>
   <line id="_125491384" class="fil0 str1" x1="53.5721" y1="65.6548" x2="45" y2= "44.9599" />
   <g>
    <polygon id="_125491456" class="fil1 str1" points="53.5721,65.6548 45,44.9599 51.6983,47.7272 "/>
    <polygon id="_125489848" class="fil2 str1" points="53.5721,65.6548 45,44.9599 42.2204,51.6531 "/>
   </g>
   <g>
    <polygon id="_125491360" class="fil1 str1" points="65.6771,36.4309 44.9822,45.003 47.7495,38.3047 "/>
    <polygon id="_125491336" class="fil2 str1" points="65.6771,36.4309 44.9822,45.003 51.6754,47.7826 "/>
   </g>
   <g>
    <polygon id="_125492704" class="fil1 str1" points="36.4279,24.265 45,44.9599 38.3017,42.1926 "/>
    <polygon id="_125491120" class="fil2 str1" points="36.4279,24.265 45,44.9599 47.7796,38.2667 "/>
   </g>
   <g>
    <polygon id="_125490184" class="fil1 str1" points="64.6946,25.1176 44.8956,44.9166 53.9549,44.9249 "/>
    <polygon id="_125490376" class="fil2 str1" points="64.6946,25.1176 44.8956,44.9166 44.8873,35.8573 "/>
   </g>
   <g>
    <polygon id="_125492416" class="fil1 str1" points="64.8193,64.71 45.0203,44.911 45.012,53.9703 "/>
    <polygon id="_125489776" class="fil2 str1" points="64.8193,64.71 45.0203,44.911 54.0796,44.9027 "/>
   </g>
   <g>
    <polygon id="_125492008" class="fil1 str1" points="25.201,64.7589 45,44.9599 35.9407,44.9516 "/>
    <polygon id="_125492536" class="fil2 str1" points="25.201,64.7589 45,44.9599 45.0083,54.0192 "/>
   </g>
   <g>
    <polygon id="_125492056" class="fil1 str1" points="25.201,25.1609 45,44.9599 45.0083,35.9006 "/>
    <polygon id="_125492080" class="fil2 str1" points="25.201,25.1609 45,44.9599 35.9407,44.9682 "/>
   </g>
   <g>
    <polygon id="_125490040" class="fil1 str1" points="44.9822,10.003 44.9822,45.003 52.9969,37.003 "/>
    <polygon id="_125490544" class="fil2 str1" points="44.9822,10.003 44.9822,45.003 36.9675,37.003 "/>
   </g>
   <g>
    <polygon id="_125492344" class="fil1 str1" points="80,44.9599 45,44.9599 53,52.9746 "/>
    <polygon id="_125489872" class="fil2 str1" points="80,44.9599 45,44.9599 53,36.9452 "/>
   </g>
   <g>
    <polygon id="_125492200" class="fil1 str1" points="45.0203,79.911 45.0203,44.911 37.0056,52.911 "/>
    <polygon id="_125492176" class="fil2 str1" points="45.0203,79.911 45.0203,44.911 53.035,52.911 "/>
   </g>
   <g>
    <polygon id="_125492800" class="fil1 str1" points="10,44.9599 45,44.9599 37,36.9452 "/>
    <polygon id="_125493424" class="fil2 str1" points="10,44.9599 45,44.9599 37,52.9746 "/>
   </g>
  </g>
  <path class="fil3 str1" d="M44.9436 4.0255l0.0868 0.3619c0.0804,0.3313 0.1598,0.6202 0.2381,0.8689 0.0794,0.2476 0.2805,0.8213 0.6054,1.7208 0.0307,-0.1143 0.092,-0.3661 0.1852,-0.7567 0.1206,-0.509 0.2,-0.8276 0.2392,-0.9578 0.1153,-0.3831 0.2275,-0.6635 0.3344,-0.8434 0.1079,-0.18 0.2275,-0.3091 0.3598,-0.3874 0.1323,-0.0794 0.2826,-0.1185 0.4498,-0.1185 0.1344,0 0.2371,0.0264 0.3091,0.0772 0.0709,0.0519 0.1068,0.1143 0.1068,0.1863 0,0.0519 -0.019,0.0974 -0.0582,0.1365 -0.0381,0.0392 -0.0825,0.0593 -0.1344,0.0593 -0.037,0 -0.0804,-0.0106 -0.1301,-0.0318 -0.1038,-0.0412 -0.1651,-0.0645 -0.1863,-0.0709 -0.0371,-0.0084 -0.0773,-0.0127 -0.1207,-0.0127 -0.1016,0 -0.1883,0.035 -0.2603,0.1027 -0.1281,0.1196 -0.2699,0.4212 -0.4233,0.9027 -0.1546,0.4816 -0.3504,1.251 -0.5874,2.3093l-0.1059 0.4625c-0.236,-0.5186 -0.3947,-0.8869 -0.4773,-1.1038 -0.1121,-0.2921 -0.2391,-0.6594 -0.381,-1.1039l-0.3418 -1.0731c-0.0413,0.2476 -0.1376,0.6667 -0.29,1.2541 -0.1513,0.5884 -0.2423,0.9271 -0.2709,1.016 -0.0953,0.2784 -0.1969,0.4921 -0.3059,0.6414 -0.1079,0.1492 -0.2265,0.2571 -0.3556,0.3259 -0.1302,0.0678 -0.272,0.1016 -0.4265,0.1016 -0.1947,0 -0.3535,-0.0434 -0.4773,-0.1301 -0.0952,-0.0635 -0.1429,-0.145 -0.1429,-0.2445 0,-0.0434 0.017,-0.0826 0.0529,-0.1164 0.035,-0.0339 0.0773,-0.0508 0.127,-0.0508 0.0635,0 0.1334,0.0338 0.2075,0.1016 0.1323,0.1227 0.2529,0.1831 0.363,0.1831 0.1175,0 0.2328,-0.053 0.3471,-0.1577 0.1694,-0.162 0.3323,-0.4996 0.49,-1.0139 0.1895,-0.6223 0.3726,-1.4118 0.5482,-2.3686 -0.0719,0 -0.2106,0.0201 -0.4148,0.0614 -0.2053,0.0413 -0.3757,0.0995 -0.5133,0.1757 -0.1376,0.0751 -0.2434,0.1736 -0.3165,0.2942 -0.073,0.1207 -0.11,0.2477 -0.11,0.38 0,0.0656 0.0095,0.1333 0.0275,0.201 0.0127,0.0455 0.0402,0.1016 0.0815,0.1673 0.0466,0.0772 0.0709,0.1344 0.0709,0.1746 0,0.0487 -0.018,0.091 -0.054,0.127 -0.037,0.0349 -0.0815,0.0518 -0.1354,0.0518 -0.0784,0 -0.145,-0.0402 -0.2011,-0.1217 -0.0561,-0.0815 -0.0836,-0.2063 -0.0836,-0.3736 0,-0.2772 0.0698,-0.5133 0.2085,-0.7069 0.1397,-0.1948 0.327,-0.3419 0.5598,-0.4403 0.1492,-0.0624 0.436,-0.1217 0.8626,-0.1799 0.1566,-0.0212 0.3048,-0.0476 0.4434,-0.0804z"/>
  <path class="fil3 str1" d="M85.9375 43.8272l-0.1651 0c0.017,-0.1048 0.0254,-0.1884 0.0254,-0.2508 0,-0.0826 -0.0349,-0.1366 -0.1037,-0.163 -0.0698,-0.0254 -0.3302,-0.0381 -0.7831,-0.0381l-0.453 0.0031 -0.344 1.3706 0.6424 0c0.2022,0 0.3271,-0.0159 0.3736,-0.0455 0.0466,-0.0297 0.0794,-0.1048 0.1006,-0.2244l0.1767 0c-0.0667,0.2498 -0.1249,0.5249 -0.1767,0.8245l-0.1588 0c0.0106,-0.0974 0.0159,-0.1726 0.0159,-0.2265 0,-0.0223 -0.0148,-0.0508 -0.0434,-0.0836 -0.0148,-0.017 -0.0413,-0.0276 -0.0804,-0.0339 -0.0561,-0.0106 -0.1429,-0.0159 -0.2604,-0.0159l-0.636 0c-0.1842,0.7028 -0.3747,1.2541 -0.5737,1.6531 0.1927,-0.0603 0.3631,-0.0899 0.5123,-0.0899 0.2476,0 0.5514,0.0391 0.9112,0.1175 0.1905,0.0433 0.3196,0.0656 0.3874,0.0656 0.091,0 0.164,-0.0233 0.2201,-0.0688 0.0561,-0.0455 0.0836,-0.0974 0.0836,-0.1545 0,-0.0339 -0.0127,-0.0868 -0.0402,-0.162 -0.0159,-0.0518 -0.0244,-0.0994 -0.0244,-0.145 0,-0.0476 0.0191,-0.0899 0.0572,-0.128 0.0381,-0.0371 0.0836,-0.055 0.1376,-0.055 0.0645,0 0.1174,0.0243 0.1598,0.074 0.0423,0.0498 0.0635,0.1154 0.0635,0.199 0,0.1757 -0.0773,0.3291 -0.2307,0.4614 -0.1546,0.1323 -0.3567,0.199 -0.6096,0.199 -0.1323,0 -0.2995,-0.0116 -0.5017,-0.0349 -0.4445,-0.0498 -0.7842,-0.0741 -1.017,-0.0741 -0.3059,0 -0.6636,0.0243 -1.0732,0.0741l0.0497 -0.1704c0.2435,-0.0677 0.3874,-0.1185 0.4308,-0.1503 0.0434,-0.0317 0.0794,-0.0794 0.109,-0.1408 0.0984,-0.1968 0.2275,-0.5905 0.3852,-1.1811 0.1588,-0.5916 0.3196,-1.216 0.4826,-1.8732 -0.2476,0 -0.4826,0.0593 -0.7038,0.1767 -0.2212,0.1175 -0.3937,0.271 -0.5175,0.4604 -0.1238,0.1895 -0.1863,0.3884 -0.1863,0.5969 0,0.0889 0.0085,0.1662 0.0265,0.2328 0.0169,0.0657 0.0572,0.1588 0.1196,0.2784 0.0392,0.073 0.0582,0.1312 0.0582,0.1767 0,0.0455 -0.019,0.0868 -0.0571,0.1217 -0.0381,0.035 -0.0858,0.053 -0.1408,0.053 -0.0804,0 -0.145,-0.0413 -0.1926,-0.1218 -0.0699,-0.1174 -0.1048,-0.2772 -0.1048,-0.4804 0,-0.434 0.164,-0.8234 0.4921,-1.1684 0.3292,-0.3461 0.8075,-0.5186 1.4362,-0.5186l1.0636 0c0.3673,0 0.6392,-0.0233 0.8149,-0.0709 -0.0825,0.3429 -0.1354,0.5873 -0.1577,0.7313z"/>
  <path class="fil3 str1" d="M46.4739 83.1129l-0.1619 0c0.0232,-0.217 0.0349,-0.381 0.0349,-0.4932 0,-0.1587 -0.0434,-0.2847 -0.1291,-0.3768 -0.0858,-0.092 -0.2022,-0.1375 -0.3493,-0.1375 -0.2265,0 -0.4254,0.0825 -0.5948,0.2466 -0.1693,0.164 -0.254,0.3481 -0.254,0.5535 0,0.109 0.0233,0.2085 0.0699,0.2974 0.0455,0.0889 0.1492,0.2127 0.308,0.3725 0.291,0.2847 0.4826,0.508 0.5736,0.6689 0.091,0.1619 0.1365,0.3185 0.1365,0.472 0,0.2254 -0.0688,0.4424 -0.2064,0.6508 -0.1376,0.2085 -0.3397,0.3811 -0.6075,0.5165 -0.2677,0.1355 -0.5503,0.2032 -0.8477,0.2032 -0.2942,0 -0.5419,-0.0772 -0.7429,-0.2296 -0.2011,-0.1535 -0.3027,-0.3144 -0.3027,-0.4837 0,-0.091 0.0264,-0.1662 0.0794,-0.2265 0.0529,-0.0603 0.1132,-0.0899 0.1809,-0.0899 0.0709,0 0.1291,0.0275 0.1736,0.0836 0.0296,0.0328 0.0582,0.1079 0.0878,0.2233 0.0328,0.1407 0.0731,0.2423 0.1207,0.3058 0.0476,0.0625 0.1132,0.1143 0.1968,0.1546 0.0836,0.0402 0.1747,0.0603 0.2741,0.0603 0.2953,0 0.5546,-0.0995 0.7758,-0.2995 0.2201,-0.199 0.3313,-0.4202 0.3313,-0.6615 0,-0.0825 -0.0138,-0.1651 -0.0424,-0.2466 -0.0275,-0.0815 -0.0783,-0.1746 -0.1534,-0.2773 -0.0508,-0.0709 -0.1662,-0.1947 -0.344,-0.3725 -0.1757,-0.1736 -0.2857,-0.2921 -0.3312,-0.3567 -0.0646,-0.0931 -0.1122,-0.1862 -0.1429,-0.2804 -0.0307,-0.0942 -0.0466,-0.1873 -0.0466,-0.2805 0,-0.1884 0.0635,-0.3767 0.1895,-0.5672 0.1259,-0.1905 0.2899,-0.3419 0.491,-0.4541 0.2022,-0.1132 0.4308,-0.1693 0.6869,-0.1693 0.128,0 0.2868,0.0201 0.4741,0.0593 0.108,0.0201 0.2011,0.0359 0.2794,0.0465 -0.0455,0.1344 -0.0804,0.2604 -0.1058,0.38 -0.0244,0.1185 -0.0582,0.3545 -0.1016,0.708z"/>
  <path class="fil3 str1" d="M6.6924 43.1054c0.2603,0 0.4953,0.0603 0.7048,0.1821 0.2106,0.1206 0.3725,0.2931 0.489,0.5175 0.1153,0.2243 0.1735,0.4847 0.1735,0.7831 0,0.3885 -0.1048,0.7737 -0.3132,1.1557 -0.2085,0.3832 -0.4647,0.671 -0.7663,0.8658 -0.3016,0.1936 -0.636,0.291 -1.0043,0.291 -0.4234,0 -0.7663,-0.1323 -1.0277,-0.3969 -0.2614,-0.2646 -0.3926,-0.6127 -0.3926,-1.0445 0,-0.4139 0.1048,-0.8128 0.3132,-1.1991 0.2085,-0.3853 0.4657,-0.6742 0.7695,-0.8658 0.3037,-0.1926 0.6551,-0.2889 1.0541,-0.2889zm-0.2265 0.2233c-0.2403,0 -0.4604,0.0709 -0.6625,0.2128 -0.2011,0.1418 -0.3662,0.363 -0.4943,0.6635 -0.128,0.3006 -0.1915,0.6488 -0.1915,1.0457 0,0.455 0.0994,0.8064 0.3005,1.053 0.2,0.2477 0.4498,0.3704 0.7504,0.3704 0.2233,0 0.4339,-0.073 0.6339,-0.2201 0.199,-0.1461 0.3641,-0.3778 0.4932,-0.6932 0.1291,-0.3143 0.1937,-0.6774 0.1937,-1.0859 0,-0.4244 -0.0995,-0.7546 -0.2964,-0.9906 -0.1979,-0.237 -0.4402,-0.3556 -0.727,-0.3556z"/>
  <path class="fil3 str1" d="M21.0541 20.6177l0.0771 0.3218c0.0715,0.2944 0.1421,0.5512 0.2117,0.7723 0.0706,0.2201 0.2493,0.73 0.5381,1.5296 0.0273,-0.1016 0.0819,-0.3255 0.1646,-0.6726 0.1073,-0.4525 0.1778,-0.7356 0.2126,-0.8513 0.1026,-0.3406 0.2023,-0.5899 0.2973,-0.7498 0.096,-0.1599 0.2023,-0.2747 0.3199,-0.3443 0.1176,-0.0706 0.2511,-0.1054 0.3998,-0.1054 0.1195,0 0.2107,0.0235 0.2747,0.0687 0.063,0.0461 0.095,0.1016 0.095,0.1656 0,0.0461 -0.0169,0.0865 -0.0518,0.1213 -0.0338,0.0348 -0.0733,0.0527 -0.1194,0.0527 -0.033,0 -0.0715,-0.0094 -0.1157,-0.0282 -0.0922,-0.0367 -0.1468,-0.0574 -0.1656,-0.0631 -0.0329,-0.0075 -0.0687,-0.0112 -0.1073,-0.0112 -0.0903,0 -0.1674,0.031 -0.2314,0.0912 -0.1138,0.1063 -0.2399,0.3744 -0.3763,0.8025 -0.1373,0.428 -0.3113,1.1119 -0.5221,2.0526l-0.094 0.4111c-0.2098,-0.4609 -0.3509,-0.7883 -0.4243,-0.9812 -0.0997,-0.2596 -0.2126,-0.586 -0.3387,-0.9811l-0.3038 -0.9539c-0.0367,0.2201 -0.1223,0.5926 -0.2578,1.1147 -0.1345,0.5231 -0.2154,0.8241 -0.2408,0.9031 -0.0847,0.2474 -0.175,0.4375 -0.2719,0.5701 -0.096,0.1327 -0.2013,0.2286 -0.3161,0.2898 -0.1157,0.0602 -0.2418,0.0903 -0.3791,0.0903 -0.1731,0 -0.3142,-0.0386 -0.4243,-0.1157 -0.0846,-0.0565 -0.127,-0.1289 -0.127,-0.2173 0,-0.0386 0.0151,-0.0734 0.0471,-0.1035 0.031,-0.0301 0.0686,-0.0452 0.1129,-0.0452 0.0564,0 0.1185,0.0301 0.1843,0.0903 0.1176,0.1092 0.2249,0.1628 0.3227,0.1628 0.1044,0 0.207,-0.0471 0.3086,-0.1402 0.1505,-0.1439 0.2954,-0.444 0.4355,-0.9012 0.1684,-0.5532 0.3312,-1.255 0.4873,-2.1054 -0.0639,0 -0.1872,0.0179 -0.3687,0.0546 -0.1825,0.0367 -0.334,0.0884 -0.4563,0.1561 -0.1223,0.0668 -0.2164,0.1543 -0.2813,0.2616 -0.0649,0.1072 -0.0978,0.2201 -0.0978,0.3377 0,0.0583 0.0085,0.1185 0.0245,0.1787 0.0112,0.0405 0.0357,0.0903 0.0724,0.1487 0.0414,0.0686 0.063,0.1194 0.063,0.1552 0,0.0433 -0.016,0.0809 -0.048,0.1129 -0.0329,0.031 -0.0724,0.0461 -0.1204,0.0461 -0.0696,0 -0.1289,-0.0358 -0.1787,-0.1082 -0.0499,-0.0724 -0.0743,-0.1835 -0.0743,-0.3321 0,-0.2465 0.0621,-0.4562 0.1853,-0.6284 0.1242,-0.1731 0.2907,-0.3039 0.4976,-0.3913 0.1327,-0.0555 0.3876,-0.1082 0.7667,-0.16 0.1393,-0.0188 0.271,-0.0423 0.3942,-0.0715zm3.9078 0.0188c0.2314,0 0.4403,0.0537 0.6265,0.1619 0.1872,0.1072 0.3312,0.2605 0.4346,0.46 0.1026,0.1994 0.1543,0.4308 0.1543,0.6961 0,0.3453 -0.0931,0.6877 -0.2784,1.0273 -0.1854,0.3405 -0.413,0.5964 -0.6811,0.7695 -0.2681,0.1722 -0.5654,0.2587 -0.8928,0.2587 -0.3763,0 -0.6811,-0.1176 -0.9134,-0.3528 -0.2324,-0.2351 -0.349,-0.5446 -0.349,-0.9285 0,-0.3678 0.0931,-0.7224 0.2784,-1.0658 0.1853,-0.3424 0.4139,-0.5993 0.6839,-0.7695 0.27,-0.1712 0.5823,-0.2569 0.937,-0.2569zm-0.2013 0.1985c-0.2136,0 -0.4092,0.0631 -0.5889,0.1891 -0.1788,0.1261 -0.3255,0.3227 -0.4393,0.5899 -0.1139,0.2671 -0.1703,0.5766 -0.1703,0.9294 0,0.4045 0.0884,0.7169 0.2671,0.936 0.1778,0.2202 0.3999,0.3293 0.667,0.3293 0.1985,0 0.3857,-0.0649 0.5635,-0.1957 0.1769,-0.1298 0.3236,-0.3358 0.4384,-0.6162 0.1148,-0.2793 0.1722,-0.602 0.1722,-0.9651 0,-0.3773 -0.0885,-0.6708 -0.2634,-0.8806 -0.176,-0.2107 -0.3914,-0.3161 -0.6463,-0.3161z"/>
  <path class="fil3 str1" d="M66.6233 66.9555l-0.1439 0c0.0207,-0.1928 0.031,-0.3386 0.031,-0.4384 0,-0.1411 -0.0385,-0.253 -0.1147,-0.3349 -0.0762,-0.0818 -0.1797,-0.1223 -0.3105,-0.1223 -0.2013,0 -0.3782,0.0734 -0.5287,0.2192 -0.1505,0.1458 -0.2258,0.3095 -0.2258,0.492 0,0.0969 0.0207,0.1854 0.0621,0.2644 0.0405,0.079 0.1327,0.1891 0.2738,0.3311 0.2587,0.2531 0.429,0.4516 0.5099,0.5946 0.0809,0.1439 0.1213,0.2831 0.1213,0.4195 0,0.2004 -0.0611,0.3933 -0.1834,0.5786 -0.1223,0.1853 -0.302,0.3386 -0.54,0.4591 -0.238,0.1204 -0.4892,0.1806 -0.7535,0.1806 -0.2616,0 -0.4817,-0.0687 -0.6604,-0.2042 -0.1788,-0.1364 -0.2691,-0.2794 -0.2691,-0.4299 0,-0.0809 0.0235,-0.1477 0.0706,-0.2013 0.047,-0.0536 0.1006,-0.08 0.1608,-0.08 0.0631,0 0.1148,0.0245 0.1543,0.0744 0.0264,0.0291 0.0518,0.0959 0.0781,0.1985 0.0292,0.1251 0.0649,0.2154 0.1072,0.2718 0.0424,0.0555 0.1007,0.1016 0.175,0.1374 0.0743,0.0357 0.1552,0.0536 0.2437,0.0536 0.2624,0 0.4929,-0.0884 0.6895,-0.2662 0.1957,-0.1769 0.2945,-0.3735 0.2945,-0.588 0,-0.0734 -0.0122,-0.1467 -0.0376,-0.2192 -0.0245,-0.0724 -0.0697,-0.1552 -0.1365,-0.2465 -0.0451,-0.063 -0.1477,-0.173 -0.3057,-0.3311 -0.1562,-0.1543 -0.254,-0.2596 -0.2944,-0.317 -0.0574,-0.0828 -0.0998,-0.1656 -0.127,-0.2493 -0.0273,-0.0837 -0.0414,-0.1665 -0.0414,-0.2493 0,-0.1675 0.0564,-0.3349 0.1684,-0.5042 0.1119,-0.1694 0.2577,-0.3039 0.4365,-0.4036 0.1796,-0.1007 0.3828,-0.1505 0.6105,-0.1505 0.1138,0 0.2549,0.0178 0.4214,0.0527 0.096,0.0178 0.1788,0.0319 0.2484,0.0413 -0.0405,0.1195 -0.0715,0.2315 -0.0941,0.3378 -0.0216,0.1053 -0.0517,0.3151 -0.0903,0.6293zm3.3763 -0.4083l-0.1468 0c0.0151,-0.0931 0.0226,-0.1674 0.0226,-0.2229 0,-0.0734 -0.031,-0.1214 -0.0922,-0.1449 -0.0621,-0.0226 -0.2935,-0.0339 -0.6961,-0.0339l-0.4027 0.0029 -0.3057 1.2182 0.571 0c0.1797,0 0.2907,-0.0141 0.3321,-0.0404 0.0414,-0.0264 0.0706,-0.0932 0.0894,-0.1995l0.1571 0c-0.0593,0.222 -0.111,0.4666 -0.1571,0.7329l-0.1411 0c0.0094,-0.0866 0.0141,-0.1534 0.0141,-0.2014 0,-0.0197 -0.0132,-0.0451 -0.0386,-0.0743 -0.0132,-0.015 -0.0367,-0.0244 -0.0715,-0.0301 -0.0499,-0.0094 -0.127,-0.0141 -0.2314,-0.0141l-0.5654 0c-0.1637,0.6247 -0.333,1.1148 -0.5099,1.4694 0.1712,-0.0536 0.3227,-0.0799 0.4553,-0.0799 0.2202,0 0.4902,0.0348 0.81,0.1044 0.1693,0.0386 0.2841,0.0583 0.3443,0.0583 0.0809,0 0.1458,-0.0207 0.1957,-0.0611 0.0499,-0.0405 0.0743,-0.0866 0.0743,-0.1374 0,-0.0301 -0.0113,-0.0771 -0.0357,-0.1439 -0.0141,-0.0461 -0.0217,-0.0884 -0.0217,-0.1289 0,-0.0423 0.017,-0.0799 0.0508,-0.1138 0.0339,-0.0329 0.0743,-0.0489 0.1223,-0.0489 0.0574,0 0.1044,0.0216 0.1421,0.0658 0.0376,0.0442 0.0564,0.1026 0.0564,0.1769 0,0.1561 -0.0687,0.2925 -0.2051,0.4101 -0.1373,0.1176 -0.317,0.1769 -0.5418,0.1769 -0.1176,0 -0.2663,-0.0104 -0.4459,-0.031 -0.3951,-0.0443 -0.6971,-0.0659 -0.9041,-0.0659 -0.2719,0 -0.5898,0.0216 -0.9539,0.0659l0.0442 -0.1515c0.2164,-0.0602 0.3443,-0.1054 0.3829,-0.1336 0.0386,-0.0282 0.0706,-0.0705 0.0969,-0.1251 0.0875,-0.175 0.2023,-0.5249 0.3424,-1.0499 0.1411,-0.5258 0.2841,-1.0809 0.429,-1.6651 -0.2201,0 -0.429,0.0527 -0.6256,0.1571 -0.1966,0.1045 -0.3499,0.2409 -0.46,0.4093 -0.1101,0.1683 -0.1656,0.3452 -0.1656,0.5305 0,0.0791 0.0076,0.1477 0.0236,0.207 0.015,0.0583 0.0508,0.1411 0.1063,0.2474 0.0348,0.0649 0.0517,0.1167 0.0517,0.1571 0,0.0405 -0.0169,0.0771 -0.0508,0.1082 -0.0339,0.031 -0.0762,0.047 -0.1251,0.047 -0.0715,0 -0.1289,-0.0367 -0.1712,-0.1082 -0.0621,-0.1044 -0.0932,-0.2464 -0.0932,-0.427 0,-0.3858 0.1458,-0.7319 0.4375,-1.0386 0.2925,-0.3076 0.7178,-0.461 1.2765,-0.461l0.9455 0c0.3264,0 0.5682,-0.0207 0.7243,-0.063 -0.0733,0.3048 -0.1204,0.5221 -0.1401,0.65z"/>
  <path class="fil3 str1" d="M66.2777 20.6177l0.0771 0.3218c0.0715,0.2944 0.1421,0.5512 0.2117,0.7723 0.0706,0.2201 0.2493,0.73 0.5381,1.5296 0.0273,-0.1016 0.0819,-0.3255 0.1646,-0.6726 0.1073,-0.4525 0.1778,-0.7356 0.2126,-0.8513 0.1026,-0.3406 0.2023,-0.5899 0.2973,-0.7498 0.096,-0.1599 0.2023,-0.2747 0.3199,-0.3443 0.1176,-0.0706 0.2511,-0.1054 0.3998,-0.1054 0.1195,0 0.2107,0.0235 0.2747,0.0687 0.063,0.0461 0.095,0.1016 0.095,0.1656 0,0.0461 -0.0169,0.0865 -0.0518,0.1213 -0.0338,0.0348 -0.0733,0.0527 -0.1194,0.0527 -0.033,0 -0.0715,-0.0094 -0.1157,-0.0282 -0.0922,-0.0367 -0.1468,-0.0574 -0.1656,-0.0631 -0.0329,-0.0075 -0.0687,-0.0112 -0.1073,-0.0112 -0.0903,0 -0.1674,0.031 -0.2314,0.0912 -0.1138,0.1063 -0.2399,0.3744 -0.3763,0.8025 -0.1373,0.428 -0.3113,1.1119 -0.5221,2.0526l-0.094 0.4111c-0.2098,-0.4609 -0.3509,-0.7883 -0.4243,-0.9812 -0.0997,-0.2596 -0.2126,-0.586 -0.3387,-0.9811l-0.3038 -0.9539c-0.0367,0.2201 -0.1223,0.5926 -0.2578,1.1147 -0.1345,0.5231 -0.2154,0.8241 -0.2408,0.9031 -0.0847,0.2474 -0.175,0.4375 -0.2719,0.5701 -0.096,0.1327 -0.2013,0.2286 -0.3161,0.2898 -0.1157,0.0602 -0.2418,0.0903 -0.3791,0.0903 -0.1731,0 -0.3142,-0.0386 -0.4243,-0.1157 -0.0846,-0.0565 -0.127,-0.1289 -0.127,-0.2173 0,-0.0386 0.0151,-0.0734 0.0471,-0.1035 0.031,-0.0301 0.0686,-0.0452 0.1129,-0.0452 0.0564,0 0.1185,0.0301 0.1843,0.0903 0.1176,0.1092 0.2249,0.1628 0.3227,0.1628 0.1044,0 0.207,-0.0471 0.3086,-0.1402 0.1505,-0.1439 0.2954,-0.444 0.4355,-0.9012 0.1684,-0.5532 0.3312,-1.255 0.4873,-2.1054 -0.0639,0 -0.1872,0.0179 -0.3687,0.0546 -0.1825,0.0367 -0.334,0.0884 -0.4563,0.1561 -0.1223,0.0668 -0.2164,0.1543 -0.2813,0.2616 -0.0649,0.1072 -0.0978,0.2201 -0.0978,0.3377 0,0.0583 0.0085,0.1185 0.0245,0.1787 0.0112,0.0405 0.0357,0.0903 0.0724,0.1487 0.0414,0.0686 0.063,0.1194 0.063,0.1552 0,0.0433 -0.016,0.0809 -0.048,0.1129 -0.0329,0.031 -0.0724,0.0461 -0.1204,0.0461 -0.0696,0 -0.1289,-0.0358 -0.1787,-0.1082 -0.0499,-0.0724 -0.0743,-0.1835 -0.0743,-0.3321 0,-0.2465 0.0621,-0.4562 0.1853,-0.6284 0.1242,-0.1731 0.2907,-0.3039 0.4976,-0.3913 0.1327,-0.0555 0.3876,-0.1082 0.7667,-0.16 0.1393,-0.0188 0.271,-0.0423 0.3942,-0.0715zm5.0461 0.6745l-0.1468 0c0.0151,-0.0931 0.0226,-0.1674 0.0226,-0.2229 0,-0.0734 -0.031,-0.1214 -0.0922,-0.1449 -0.0621,-0.0226 -0.2935,-0.0339 -0.6961,-0.0339l-0.4027 0.0029 -0.3057 1.2182 0.571 0c0.1797,0 0.2907,-0.0141 0.3321,-0.0404 0.0414,-0.0264 0.0706,-0.0932 0.0894,-0.1995l0.1571 0c-0.0593,0.222 -0.111,0.4666 -0.1571,0.7329l-0.1411 0c0.0094,-0.0866 0.0141,-0.1534 0.0141,-0.2014 0,-0.0197 -0.0132,-0.0451 -0.0386,-0.0743 -0.0132,-0.015 -0.0367,-0.0244 -0.0715,-0.0301 -0.0499,-0.0094 -0.127,-0.0141 -0.2314,-0.0141l-0.5654 0c-0.1637,0.6247 -0.333,1.1148 -0.5099,1.4694 0.1712,-0.0536 0.3227,-0.0799 0.4553,-0.0799 0.2202,0 0.4902,0.0348 0.81,0.1044 0.1693,0.0386 0.2841,0.0583 0.3443,0.0583 0.0809,0 0.1458,-0.0207 0.1957,-0.0611 0.0499,-0.0405 0.0743,-0.0866 0.0743,-0.1374 0,-0.0301 -0.0113,-0.0771 -0.0357,-0.1439 -0.0141,-0.0461 -0.0217,-0.0884 -0.0217,-0.1289 0,-0.0423 0.017,-0.0799 0.0508,-0.1138 0.0339,-0.0329 0.0743,-0.0489 0.1223,-0.0489 0.0574,0 0.1044,0.0216 0.1421,0.0658 0.0376,0.0442 0.0564,0.1026 0.0564,0.1769 0,0.1561 -0.0687,0.2925 -0.2051,0.4101 -0.1373,0.1176 -0.317,0.1769 -0.5418,0.1769 -0.1176,0 -0.2663,-0.0104 -0.4459,-0.031 -0.3951,-0.0443 -0.6971,-0.0659 -0.9041,-0.0659 -0.2719,0 -0.5898,0.0216 -0.9539,0.0659l0.0442 -0.1515c0.2164,-0.0602 0.3443,-0.1054 0.3829,-0.1336 0.0386,-0.0282 0.0706,-0.0705 0.0969,-0.1251 0.0875,-0.175 0.2023,-0.5249 0.3424,-1.0499 0.1411,-0.5258 0.2841,-1.0809 0.429,-1.6651 -0.2201,0 -0.429,0.0527 -0.6256,0.1571 -0.1966,0.1045 -0.3499,0.2409 -0.46,0.4093 -0.1101,0.1683 -0.1656,0.3452 -0.1656,0.5305 0,0.0791 0.0076,0.1477 0.0236,0.207 0.015,0.0583 0.0508,0.1411 0.1063,0.2474 0.0348,0.0649 0.0517,0.1167 0.0517,0.1571 0,0.0405 -0.0169,0.0771 -0.0508,0.1082 -0.0339,0.031 -0.0762,0.047 -0.1251,0.047 -0.0715,0 -0.1289,-0.0367 -0.1712,-0.1082 -0.0621,-0.1044 -0.0932,-0.2464 -0.0932,-0.427 0,-0.3858 0.1458,-0.7319 0.4375,-1.0386 0.2925,-0.3076 0.7178,-0.461 1.2765,-0.461l0.9455 0c0.3264,0 0.5682,-0.0207 0.7243,-0.063 -0.0733,0.3048 -0.1204,0.5221 -0.1401,0.65z"/>
  <path class="fil3 str1" d="M21.3369 66.9555l-0.1439 0c0.0207,-0.1928 0.031,-0.3386 0.031,-0.4384 0,-0.1411 -0.0385,-0.253 -0.1147,-0.3349 -0.0762,-0.0818 -0.1797,-0.1223 -0.3105,-0.1223 -0.2013,0 -0.3782,0.0734 -0.5287,0.2192 -0.1505,0.1458 -0.2258,0.3095 -0.2258,0.492 0,0.0969 0.0207,0.1854 0.0621,0.2644 0.0405,0.079 0.1327,0.1891 0.2738,0.3311 0.2587,0.2531 0.429,0.4516 0.5099,0.5946 0.0809,0.1439 0.1213,0.2831 0.1213,0.4195 0,0.2004 -0.0611,0.3933 -0.1834,0.5786 -0.1223,0.1853 -0.302,0.3386 -0.54,0.4591 -0.238,0.1204 -0.4892,0.1806 -0.7535,0.1806 -0.2616,0 -0.4817,-0.0687 -0.6604,-0.2042 -0.1788,-0.1364 -0.2691,-0.2794 -0.2691,-0.4299 0,-0.0809 0.0235,-0.1477 0.0706,-0.2013 0.047,-0.0536 0.1006,-0.08 0.1608,-0.08 0.0631,0 0.1148,0.0245 0.1543,0.0744 0.0264,0.0291 0.0518,0.0959 0.0781,0.1985 0.0292,0.1251 0.0649,0.2154 0.1072,0.2718 0.0424,0.0555 0.1007,0.1016 0.175,0.1374 0.0743,0.0357 0.1552,0.0536 0.2437,0.0536 0.2624,0 0.4929,-0.0884 0.6895,-0.2662 0.1957,-0.1769 0.2945,-0.3735 0.2945,-0.588 0,-0.0734 -0.0122,-0.1467 -0.0376,-0.2192 -0.0245,-0.0724 -0.0697,-0.1552 -0.1365,-0.2465 -0.0451,-0.063 -0.1477,-0.173 -0.3057,-0.3311 -0.1562,-0.1543 -0.254,-0.2596 -0.2944,-0.317 -0.0574,-0.0828 -0.0998,-0.1656 -0.127,-0.2493 -0.0273,-0.0837 -0.0414,-0.1665 -0.0414,-0.2493 0,-0.1675 0.0564,-0.3349 0.1684,-0.5042 0.1119,-0.1694 0.2577,-0.3039 0.4365,-0.4036 0.1796,-0.1007 0.3828,-0.1505 0.6105,-0.1505 0.1138,0 0.2549,0.0178 0.4214,0.0527 0.096,0.0178 0.1788,0.0319 0.2484,0.0413 -0.0405,0.1195 -0.0715,0.2315 -0.0941,0.3378 -0.0216,0.1053 -0.0517,0.3151 -0.0903,0.6293zm2.238 -1.064c0.2314,0 0.4403,0.0537 0.6265,0.1619 0.1872,0.1072 0.3312,0.2605 0.4346,0.46 0.1026,0.1994 0.1543,0.4308 0.1543,0.6961 0,0.3453 -0.0931,0.6877 -0.2784,1.0273 -0.1854,0.3405 -0.413,0.5964 -0.6811,0.7695 -0.2681,0.1722 -0.5654,0.2587 -0.8928,0.2587 -0.3763,0 -0.6811,-0.1176 -0.9134,-0.3528 -0.2324,-0.2351 -0.349,-0.5446 -0.349,-0.9285 0,-0.3678 0.0931,-0.7224 0.2784,-1.0658 0.1853,-0.3424 0.4139,-0.5993 0.6839,-0.7695 0.27,-0.1712 0.5823,-0.2569 0.937,-0.2569zm-0.2013 0.1985c-0.2136,0 -0.4092,0.0631 -0.5889,0.1891 -0.1788,0.1261 -0.3255,0.3227 -0.4393,0.5899 -0.1139,0.2671 -0.1703,0.5766 -0.1703,0.9294 0,0.4045 0.0884,0.7169 0.2671,0.936 0.1778,0.2202 0.3999,0.3293 0.667,0.3293 0.1985,0 0.3857,-0.0649 0.5635,-0.1957 0.1769,-0.1298 0.3236,-0.3358 0.4384,-0.6162 0.1148,-0.2793 0.1722,-0.602 0.1722,-0.9651 0,-0.3773 -0.0885,-0.6708 -0.2634,-0.8806 -0.176,-0.2107 -0.3914,-0.3161 -0.6463,-0.3161z"/>
  <path class="fil3 str1" d="M17.4069 33.2099c0.1736,0 0.3302,0.0403 0.4699,0.1214 0.1404,0.0804 0.2484,0.1954 0.326,0.345 0.0769,0.1496 0.1157,0.3231 0.1157,0.5221 0,0.2589 -0.0699,0.5158 -0.2089,0.7705 -0.1389,0.2554 -0.3097,0.4473 -0.5108,0.5771 -0.2011,0.1291 -0.424,0.194 -0.6695,0.194 -0.2823,0 -0.5109,-0.0882 -0.6851,-0.2645 -0.1743,-0.1764 -0.2618,-0.4086 -0.2618,-0.6964 0,-0.2759 0.0699,-0.5419 0.2089,-0.7994 0.1389,-0.2568 0.3104,-0.4494 0.5129,-0.5771 0.2025,-0.1285 0.4367,-0.1927 0.7027,-0.1927zm-0.151 0.1489c-0.1601,0 -0.3069,0.0473 -0.4416,0.1418 -0.1341,0.0946 -0.2442,0.242 -0.3295,0.4424 -0.0854,0.2004 -0.1277,0.4325 -0.1277,0.6971 0,0.3034 0.0663,0.5376 0.2003,0.702 0.1334,0.1651 0.2999,0.247 0.5003,0.247 0.1488,0 0.2892,-0.0487 0.4226,-0.1468 0.1326,-0.0974 0.2427,-0.2519 0.3288,-0.4621 0.0861,-0.2096 0.1291,-0.4516 0.1291,-0.7239 0,-0.283 -0.0663,-0.5031 -0.1976,-0.6604 -0.1319,-0.1581 -0.2935,-0.2371 -0.4847,-0.2371zm2.7249 -0.163l0.0578 0.2413c0.0537,0.2209 0.1066,0.4135 0.1588,0.5793 0.0529,0.1651 0.187,0.5475 0.4036,1.1472 0.0204,-0.0762 0.0613,-0.2441 0.1234,-0.5045 0.0805,-0.3393 0.1334,-0.5517 0.1595,-0.6385 0.0769,-0.2554 0.1517,-0.4424 0.2229,-0.5623 0.072,-0.12 0.1517,-0.206 0.2399,-0.2582 0.0882,-0.053 0.1884,-0.0791 0.2999,-0.0791 0.0896,0 0.158,0.0177 0.206,0.0515 0.0473,0.0346 0.0713,0.0762 0.0713,0.1242 0,0.0346 -0.0127,0.0649 -0.0388,0.091 -0.0254,0.0261 -0.0551,0.0395 -0.0896,0.0395 -0.0247,0 -0.0537,-0.007 -0.0868,-0.0211 -0.0692,-0.0275 -0.1101,-0.0431 -0.1242,-0.0473 -0.0247,-0.0056 -0.0515,-0.0085 -0.0804,-0.0085 -0.0678,0 -0.1256,0.0233 -0.1736,0.0685 -0.0854,0.0797 -0.1799,0.2808 -0.2822,0.6018 -0.103,0.321 -0.2336,0.834 -0.3916,1.5395l-0.0706 0.3083c-0.1573,-0.3457 -0.2631,-0.5912 -0.3182,-0.7358 -0.0747,-0.1948 -0.1594,-0.4396 -0.254,-0.7359l-0.2279 -0.7155c-0.0275,0.1651 -0.0917,0.4445 -0.1933,0.8361 -0.1009,0.3923 -0.1615,0.6181 -0.1806,0.6773 -0.0635,0.1856 -0.1312,0.3281 -0.2039,0.4276 -0.072,0.0995 -0.151,0.1715 -0.2371,0.2173 -0.0867,0.0452 -0.1813,0.0678 -0.2843,0.0678 -0.1298,0 -0.2357,-0.029 -0.3182,-0.0868 -0.0635,-0.0424 -0.0953,-0.0967 -0.0953,-0.163 0,-0.0289 0.0113,-0.055 0.0353,-0.0776 0.0233,-0.0226 0.0515,-0.0339 0.0847,-0.0339 0.0423,0 0.0889,0.0226 0.1383,0.0677 0.0882,0.0819 0.1686,0.1221 0.242,0.1221 0.0783,0 0.1552,-0.0353 0.2314,-0.1051 0.1129,-0.108 0.2215,-0.333 0.3267,-0.6759 0.1263,-0.4149 0.2483,-0.9412 0.3654,-1.5791 -0.0479,0 -0.1404,0.0134 -0.2765,0.041 -0.1369,0.0275 -0.2505,0.0663 -0.3422,0.1171 -0.0917,0.0501 -0.1623,0.1157 -0.211,0.1961 -0.0487,0.0805 -0.0734,0.1651 -0.0734,0.2533 0,0.0438 0.0064,0.0889 0.0184,0.1341 0.0085,0.0303 0.0268,0.0677 0.0543,0.1115 0.0311,0.0515 0.0473,0.0896 0.0473,0.1164 0,0.0324 -0.012,0.0606 -0.036,0.0846 -0.0247,0.0233 -0.0543,0.0346 -0.0903,0.0346 -0.0522,0 -0.0967,-0.0268 -0.1341,-0.0811 -0.0374,-0.0544 -0.0557,-0.1376 -0.0557,-0.2491 0,-0.1848 0.0466,-0.3422 0.139,-0.4713 0.0931,-0.1298 0.218,-0.2279 0.3732,-0.2935 0.0995,-0.0416 0.2907,-0.0811 0.5751,-0.12 0.1044,-0.0141 0.2032,-0.0317 0.2956,-0.0536zm2.9308 0.0141c0.1736,0 0.3302,0.0403 0.4699,0.1214 0.1404,0.0804 0.2484,0.1954 0.326,0.345 0.0769,0.1496 0.1157,0.3231 0.1157,0.5221 0,0.2589 -0.0699,0.5158 -0.2089,0.7705 -0.1389,0.2554 -0.3097,0.4473 -0.5108,0.5771 -0.2011,0.1291 -0.424,0.194 -0.6695,0.194 -0.2823,0 -0.5109,-0.0882 -0.6851,-0.2645 -0.1743,-0.1764 -0.2618,-0.4086 -0.2618,-0.6964 0,-0.2759 0.0699,-0.5419 0.2089,-0.7994 0.1389,-0.2568 0.3104,-0.4494 0.5129,-0.5771 0.2025,-0.1285 0.4367,-0.1927 0.7027,-0.1927zm-0.151 0.1489c-0.1601,0 -0.3069,0.0473 -0.4416,0.1418 -0.1341,0.0946 -0.2442,0.242 -0.3295,0.4424 -0.0854,0.2004 -0.1277,0.4325 -0.1277,0.6971 0,0.3034 0.0663,0.5376 0.2003,0.702 0.1334,0.1651 0.2999,0.247 0.5003,0.247 0.1488,0 0.2892,-0.0487 0.4226,-0.1468 0.1326,-0.0974 0.2427,-0.2519 0.3288,-0.4621 0.0861,-0.2096 0.1291,-0.4516 0.1291,-0.7239 0,-0.283 -0.0663,-0.5031 -0.1976,-0.6604 -0.1319,-0.1581 -0.2935,-0.2371 -0.4847,-0.2371z"/>
  <path class="fil3 str1" d="M68.8234 33.702l-0.11 0c0.0113,-0.0698 0.0169,-0.1256 0.0169,-0.1672 0,-0.055 -0.0233,-0.091 -0.0691,-0.1087 -0.0466,-0.0169 -0.2202,-0.0254 -0.5221,-0.0254l-0.302 0.0022 -0.2293 0.9136 0.4282 0c0.1348,0 0.2181,-0.0105 0.2491,-0.0303 0.031,-0.0198 0.0529,-0.0698 0.067,-0.1496l0.1179 0c-0.0445,0.1665 -0.0833,0.35 -0.1179,0.5496l-0.1058 0c0.007,-0.0649 0.0106,-0.115 0.0106,-0.1509 0,-0.0149 -0.0099,-0.0339 -0.0289,-0.0558 -0.0099,-0.0113 -0.0276,-0.0183 -0.0537,-0.0226 -0.0374,-0.007 -0.0952,-0.0105 -0.1735,-0.0105l-0.4241 0c-0.1227,0.4684 -0.2497,0.836 -0.3824,1.102 0.1284,-0.0402 0.242,-0.0599 0.3415,-0.0599 0.1651,0 0.3676,0.0261 0.6075,0.0783 0.127,0.0289 0.2131,0.0437 0.2582,0.0437 0.0607,0 0.1094,-0.0155 0.1468,-0.0458 0.0374,-0.0304 0.0557,-0.065 0.0557,-0.1031 0,-0.0225 -0.0085,-0.0578 -0.0268,-0.1079 -0.0106,-0.0346 -0.0162,-0.0663 -0.0162,-0.0967 0,-0.0317 0.0127,-0.0599 0.0381,-0.0853 0.0254,-0.0247 0.0557,-0.0367 0.0917,-0.0367 0.043,0 0.0783,0.0162 0.1065,0.0494 0.0283,0.0331 0.0424,0.0769 0.0424,0.1326 0,0.1171 -0.0515,0.2194 -0.1538,0.3076 -0.1031,0.0882 -0.2378,0.1327 -0.4064,0.1327 -0.0882,0 -0.1997,-0.0078 -0.3345,-0.0233 -0.2963,-0.0332 -0.5228,-0.0494 -0.678,-0.0494 -0.2039,0 -0.4424,0.0162 -0.7154,0.0494l0.0331 -0.1136c0.1623,-0.0452 0.2583,-0.079 0.2872,-0.1002 0.0289,-0.0212 0.0529,-0.0529 0.0727,-0.0938 0.0656,-0.1313 0.1516,-0.3937 0.2568,-0.7874 0.1058,-0.3944 0.2131,-0.8107 0.3217,-1.2488 -0.1651,0 -0.3217,0.0395 -0.4692,0.1178 -0.1474,0.0783 -0.2624,0.1806 -0.345,0.3069 -0.0825,0.1263 -0.1242,0.2589 -0.1242,0.3979 0,0.0593 0.0057,0.1108 0.0177,0.1552 0.0113,0.0438 0.0381,0.1059 0.0797,0.1856 0.0261,0.0487 0.0388,0.0875 0.0388,0.1178 0,0.0304 -0.0127,0.0579 -0.0381,0.0812 -0.0254,0.0233 -0.0572,0.0352 -0.0938,0.0352 -0.0537,0 -0.0967,-0.0275 -0.1285,-0.0811 -0.0465,-0.0783 -0.0698,-0.1848 -0.0698,-0.3203 0,-0.2893 0.1094,-0.5489 0.3281,-0.7789 0.2194,-0.2308 0.5383,-0.3458 0.9574,-0.3458l0.7091 0c0.2448,0 0.4261,-0.0155 0.5433,-0.0472 -0.0551,0.2286 -0.0903,0.3915 -0.1052,0.4875zm1.8049 -0.5059l0.0578 0.2413c0.0537,0.2209 0.1066,0.4135 0.1588,0.5793 0.0529,0.1651 0.187,0.5475 0.4036,1.1472 0.0204,-0.0762 0.0613,-0.2441 0.1234,-0.5045 0.0805,-0.3393 0.1334,-0.5517 0.1595,-0.6385 0.0769,-0.2554 0.1517,-0.4424 0.2229,-0.5623 0.072,-0.12 0.1517,-0.206 0.2399,-0.2582 0.0882,-0.053 0.1884,-0.0791 0.2999,-0.0791 0.0896,0 0.158,0.0177 0.206,0.0515 0.0473,0.0346 0.0713,0.0762 0.0713,0.1242 0,0.0346 -0.0127,0.0649 -0.0388,0.091 -0.0254,0.0261 -0.0551,0.0395 -0.0896,0.0395 -0.0247,0 -0.0537,-0.007 -0.0868,-0.0211 -0.0692,-0.0275 -0.1101,-0.0431 -0.1242,-0.0473 -0.0247,-0.0056 -0.0515,-0.0085 -0.0804,-0.0085 -0.0678,0 -0.1256,0.0233 -0.1736,0.0685 -0.0854,0.0797 -0.1799,0.2808 -0.2822,0.6018 -0.103,0.321 -0.2336,0.834 -0.3916,1.5395l-0.0706 0.3083c-0.1573,-0.3457 -0.2631,-0.5912 -0.3182,-0.7358 -0.0747,-0.1948 -0.1594,-0.4396 -0.254,-0.7359l-0.2279 -0.7155c-0.0275,0.1651 -0.0917,0.4445 -0.1933,0.8361 -0.1009,0.3923 -0.1615,0.6181 -0.1806,0.6773 -0.0635,0.1856 -0.1312,0.3281 -0.2039,0.4276 -0.072,0.0995 -0.151,0.1715 -0.2371,0.2173 -0.0867,0.0452 -0.1813,0.0678 -0.2843,0.0678 -0.1298,0 -0.2357,-0.029 -0.3182,-0.0868 -0.0635,-0.0424 -0.0953,-0.0967 -0.0953,-0.163 0,-0.0289 0.0113,-0.055 0.0353,-0.0776 0.0233,-0.0226 0.0515,-0.0339 0.0847,-0.0339 0.0423,0 0.0889,0.0226 0.1383,0.0677 0.0882,0.0819 0.1686,0.1221 0.242,0.1221 0.0783,0 0.1552,-0.0353 0.2314,-0.1051 0.1129,-0.108 0.2215,-0.333 0.3267,-0.6759 0.1263,-0.4149 0.2483,-0.9412 0.3654,-1.5791 -0.0479,0 -0.1404,0.0134 -0.2765,0.041 -0.1369,0.0275 -0.2505,0.0663 -0.3422,0.1171 -0.0917,0.0501 -0.1623,0.1157 -0.211,0.1961 -0.0487,0.0805 -0.0734,0.1651 -0.0734,0.2533 0,0.0438 0.0064,0.0889 0.0184,0.1341 0.0085,0.0303 0.0268,0.0677 0.0543,0.1115 0.0311,0.0515 0.0473,0.0896 0.0473,0.1164 0,0.0324 -0.012,0.0606 -0.036,0.0846 -0.0247,0.0233 -0.0543,0.0346 -0.0903,0.0346 -0.0522,0 -0.0967,-0.0268 -0.1341,-0.0811 -0.0374,-0.0544 -0.0557,-0.1376 -0.0557,-0.2491 0,-0.1848 0.0466,-0.3422 0.139,-0.4713 0.0931,-0.1298 0.218,-0.2279 0.3732,-0.2935 0.0995,-0.0416 0.2907,-0.0811 0.5751,-0.12 0.1044,-0.0141 0.2032,-0.0317 0.2956,-0.0536zm3.7845 0.5059l-0.11 0c0.0113,-0.0698 0.0169,-0.1256 0.0169,-0.1672 0,-0.055 -0.0233,-0.091 -0.0691,-0.1087 -0.0466,-0.0169 -0.2202,-0.0254 -0.5221,-0.0254l-0.302 0.0022 -0.2293 0.9136 0.4282 0c0.1348,0 0.2181,-0.0105 0.2491,-0.0303 0.031,-0.0198 0.0529,-0.0698 0.067,-0.1496l0.1179 0c-0.0445,0.1665 -0.0833,0.35 -0.1179,0.5496l-0.1058 0c0.007,-0.0649 0.0106,-0.115 0.0106,-0.1509 0,-0.0149 -0.0099,-0.0339 -0.0289,-0.0558 -0.0099,-0.0113 -0.0276,-0.0183 -0.0537,-0.0226 -0.0374,-0.007 -0.0952,-0.0105 -0.1735,-0.0105l-0.4241 0c-0.1227,0.4684 -0.2497,0.836 -0.3824,1.102 0.1284,-0.0402 0.242,-0.0599 0.3415,-0.0599 0.1651,0 0.3676,0.0261 0.6075,0.0783 0.127,0.0289 0.2131,0.0437 0.2582,0.0437 0.0607,0 0.1094,-0.0155 0.1468,-0.0458 0.0374,-0.0304 0.0557,-0.065 0.0557,-0.1031 0,-0.0225 -0.0085,-0.0578 -0.0268,-0.1079 -0.0106,-0.0346 -0.0162,-0.0663 -0.0162,-0.0967 0,-0.0317 0.0127,-0.0599 0.0381,-0.0853 0.0254,-0.0247 0.0557,-0.0367 0.0917,-0.0367 0.043,0 0.0783,0.0162 0.1065,0.0494 0.0283,0.0331 0.0424,0.0769 0.0424,0.1326 0,0.1171 -0.0515,0.2194 -0.1538,0.3076 -0.1031,0.0882 -0.2378,0.1327 -0.4064,0.1327 -0.0882,0 -0.1997,-0.0078 -0.3345,-0.0233 -0.2963,-0.0332 -0.5228,-0.0494 -0.678,-0.0494 -0.2039,0 -0.4424,0.0162 -0.7154,0.0494l0.0331 -0.1136c0.1623,-0.0452 0.2583,-0.079 0.2872,-0.1002 0.0289,-0.0212 0.0529,-0.0529 0.0727,-0.0938 0.0656,-0.1313 0.1516,-0.3937 0.2568,-0.7874 0.1058,-0.3944 0.2131,-0.8107 0.3217,-1.2488 -0.1651,0 -0.3217,0.0395 -0.4692,0.1178 -0.1474,0.0783 -0.2624,0.1806 -0.345,0.3069 -0.0825,0.1263 -0.1242,0.2589 -0.1242,0.3979 0,0.0593 0.0057,0.1108 0.0177,0.1552 0.0113,0.0438 0.0381,0.1059 0.0797,0.1856 0.0261,0.0487 0.0388,0.0875 0.0388,0.1178 0,0.0304 -0.0127,0.0579 -0.0381,0.0812 -0.0254,0.0233 -0.0572,0.0352 -0.0938,0.0352 -0.0537,0 -0.0967,-0.0275 -0.1285,-0.0811 -0.0465,-0.0783 -0.0698,-0.1848 -0.0698,-0.3203 0,-0.2893 0.1094,-0.5489 0.3281,-0.7789 0.2194,-0.2308 0.5383,-0.3458 0.9574,-0.3458l0.7091 0c0.2448,0 0.4261,-0.0155 0.5433,-0.0472 -0.0551,0.2286 -0.0903,0.3915 -0.1052,0.4875z"/>
  <path class="fil3 str1" d="M69.3316 54.5862l-0.11 0c0.0113,-0.0698 0.0169,-0.1256 0.0169,-0.1672 0,-0.055 -0.0233,-0.091 -0.0691,-0.1087 -0.0466,-0.0169 -0.2202,-0.0254 -0.5221,-0.0254l-0.302 0.0022 -0.2293 0.9136 0.4282 0c0.1348,0 0.2181,-0.0105 0.2491,-0.0303 0.031,-0.0198 0.0529,-0.0698 0.067,-0.1496l0.1179 0c-0.0445,0.1665 -0.0833,0.35 -0.1179,0.5496l-0.1058 0c0.007,-0.0649 0.0106,-0.115 0.0106,-0.1509 0,-0.0149 -0.0099,-0.0339 -0.0289,-0.0558 -0.0099,-0.0113 -0.0276,-0.0183 -0.0537,-0.0226 -0.0374,-0.007 -0.0952,-0.0105 -0.1735,-0.0105l-0.4241 0c-0.1227,0.4684 -0.2497,0.836 -0.3824,1.102 0.1284,-0.0402 0.242,-0.0599 0.3415,-0.0599 0.1651,0 0.3676,0.0261 0.6075,0.0783 0.127,0.0289 0.2131,0.0437 0.2582,0.0437 0.0607,0 0.1094,-0.0155 0.1468,-0.0458 0.0374,-0.0304 0.0557,-0.065 0.0557,-0.1031 0,-0.0225 -0.0085,-0.0578 -0.0268,-0.1079 -0.0106,-0.0346 -0.0162,-0.0663 -0.0162,-0.0967 0,-0.0317 0.0127,-0.0599 0.0381,-0.0853 0.0254,-0.0247 0.0557,-0.0367 0.0917,-0.0367 0.043,0 0.0783,0.0162 0.1065,0.0494 0.0283,0.0331 0.0424,0.0769 0.0424,0.1326 0,0.1171 -0.0515,0.2194 -0.1538,0.3076 -0.1031,0.0882 -0.2378,0.1327 -0.4064,0.1327 -0.0882,0 -0.1997,-0.0078 -0.3345,-0.0233 -0.2963,-0.0332 -0.5228,-0.0494 -0.678,-0.0494 -0.2039,0 -0.4424,0.0162 -0.7154,0.0494l0.0331 -0.1136c0.1623,-0.0452 0.2583,-0.079 0.2872,-0.1002 0.0289,-0.0212 0.0529,-0.0529 0.0727,-0.0938 0.0656,-0.1313 0.1516,-0.3937 0.2568,-0.7874 0.1058,-0.3944 0.2131,-0.8107 0.3217,-1.2488 -0.1651,0 -0.3217,0.0395 -0.4692,0.1178 -0.1474,0.0783 -0.2624,0.1806 -0.345,0.3069 -0.0825,0.1263 -0.1242,0.2589 -0.1242,0.3979 0,0.0593 0.0057,0.1108 0.0177,0.1552 0.0113,0.0438 0.0381,0.1059 0.0797,0.1856 0.0261,0.0487 0.0388,0.0875 0.0388,0.1178 0,0.0304 -0.0127,0.0579 -0.0381,0.0812 -0.0254,0.0233 -0.0572,0.0352 -0.0938,0.0352 -0.0537,0 -0.0967,-0.0275 -0.1285,-0.0811 -0.0465,-0.0783 -0.0698,-0.1848 -0.0698,-0.3203 0,-0.2893 0.1094,-0.5489 0.3281,-0.7789 0.2194,-0.2308 0.5383,-0.3458 0.9574,-0.3458l0.7091 0c0.2448,0 0.4261,-0.0155 0.5433,-0.0472 -0.0551,0.2286 -0.0903,0.3915 -0.1052,0.4875zm2.0405 0.3062l-0.1079 0c0.0155,-0.1446 0.0233,-0.254 0.0233,-0.3288 0,-0.1058 -0.029,-0.1898 -0.0861,-0.2511 -0.0572,-0.0614 -0.1348,-0.0918 -0.2328,-0.0918 -0.151,0 -0.2837,0.0551 -0.3966,0.1644 -0.1128,0.1094 -0.1693,0.2321 -0.1693,0.369 0,0.0727 0.0155,0.139 0.0466,0.1983 0.0303,0.0593 0.0995,0.1418 0.2053,0.2483 0.194,0.1898 0.3217,0.3387 0.3824,0.4459 0.0607,0.108 0.091,0.2124 0.091,0.3147 0,0.1503 -0.0458,0.2949 -0.1376,0.4339 -0.0917,0.139 -0.2265,0.254 -0.405,0.3443 -0.1785,0.0904 -0.3668,0.1355 -0.5651,0.1355 -0.1961,0 -0.3612,-0.0515 -0.4953,-0.1531 -0.1341,-0.1023 -0.2018,-0.2095 -0.2018,-0.3224 0,-0.0607 0.0177,-0.1108 0.0529,-0.151 0.0353,-0.0402 0.0755,-0.06 0.1207,-0.06 0.0473,0 0.0861,0.0184 0.1157,0.0557 0.0197,0.0219 0.0388,0.072 0.0586,0.1489 0.0218,0.0939 0.0486,0.1616 0.0804,0.2039 0.0317,0.0416 0.0755,0.0762 0.1312,0.103 0.0558,0.0268 0.1164,0.0402 0.1828,0.0402 0.1968,0 0.3697,-0.0663 0.5171,-0.1996 0.1468,-0.1327 0.2209,-0.2801 0.2209,-0.441 0,-0.055 -0.0092,-0.1101 -0.0283,-0.1644 -0.0183,-0.0543 -0.0522,-0.1164 -0.1023,-0.1848 -0.0338,-0.0473 -0.1107,-0.1299 -0.2293,-0.2484 -0.1171,-0.1157 -0.1905,-0.1947 -0.2208,-0.2378 -0.043,-0.0621 -0.0748,-0.1241 -0.0953,-0.1869 -0.0204,-0.0628 -0.031,-0.1249 -0.031,-0.187 0,-0.1256 0.0423,-0.2512 0.1263,-0.3782 0.084,-0.127 0.1933,-0.2279 0.3274,-0.3027 0.1347,-0.0755 0.2871,-0.1128 0.4579,-0.1128 0.0853,0 0.1912,0.0134 0.3161,0.0395 0.0719,0.0134 0.134,0.024 0.1862,0.031 -0.0303,0.0896 -0.0536,0.1736 -0.0705,0.2533 -0.0163,0.079 -0.0388,0.2364 -0.0678,0.472zm2.5322 -0.3062l-0.11 0c0.0113,-0.0698 0.0169,-0.1256 0.0169,-0.1672 0,-0.055 -0.0233,-0.091 -0.0691,-0.1087 -0.0466,-0.0169 -0.2202,-0.0254 -0.5221,-0.0254l-0.302 0.0022 -0.2293 0.9136 0.4282 0c0.1348,0 0.2181,-0.0105 0.2491,-0.0303 0.031,-0.0198 0.0529,-0.0698 0.067,-0.1496l0.1179 0c-0.0445,0.1665 -0.0833,0.35 -0.1179,0.5496l-0.1058 0c0.007,-0.0649 0.0106,-0.115 0.0106,-0.1509 0,-0.0149 -0.0099,-0.0339 -0.0289,-0.0558 -0.0099,-0.0113 -0.0276,-0.0183 -0.0537,-0.0226 -0.0374,-0.007 -0.0952,-0.0105 -0.1735,-0.0105l-0.4241 0c-0.1227,0.4684 -0.2497,0.836 -0.3824,1.102 0.1284,-0.0402 0.242,-0.0599 0.3415,-0.0599 0.1651,0 0.3676,0.0261 0.6075,0.0783 0.127,0.0289 0.2131,0.0437 0.2582,0.0437 0.0607,0 0.1094,-0.0155 0.1468,-0.0458 0.0374,-0.0304 0.0557,-0.065 0.0557,-0.1031 0,-0.0225 -0.0085,-0.0578 -0.0268,-0.1079 -0.0106,-0.0346 -0.0162,-0.0663 -0.0162,-0.0967 0,-0.0317 0.0127,-0.0599 0.0381,-0.0853 0.0254,-0.0247 0.0557,-0.0367 0.0917,-0.0367 0.043,0 0.0783,0.0162 0.1065,0.0494 0.0283,0.0331 0.0424,0.0769 0.0424,0.1326 0,0.1171 -0.0515,0.2194 -0.1538,0.3076 -0.1031,0.0882 -0.2378,0.1327 -0.4064,0.1327 -0.0882,0 -0.1997,-0.0078 -0.3345,-0.0233 -0.2963,-0.0332 -0.5228,-0.0494 -0.678,-0.0494 -0.2039,0 -0.4424,0.0162 -0.7154,0.0494l0.0331 -0.1136c0.1623,-0.0452 0.2583,-0.079 0.2872,-0.1002 0.0289,-0.0212 0.0529,-0.0529 0.0727,-0.0938 0.0656,-0.1313 0.1516,-0.3937 0.2568,-0.7874 0.1058,-0.3944 0.2131,-0.8107 0.3217,-1.2488 -0.1651,0 -0.3217,0.0395 -0.4692,0.1178 -0.1474,0.0783 -0.2624,0.1806 -0.345,0.3069 -0.0825,0.1263 -0.1242,0.2589 -0.1242,0.3979 0,0.0593 0.0057,0.1108 0.0177,0.1552 0.0113,0.0438 0.0381,0.1059 0.0797,0.1856 0.0261,0.0487 0.0388,0.0875 0.0388,0.1178 0,0.0304 -0.0127,0.0579 -0.0381,0.0812 -0.0254,0.0233 -0.0572,0.0352 -0.0938,0.0352 -0.0537,0 -0.0967,-0.0275 -0.1285,-0.0811 -0.0465,-0.0783 -0.0698,-0.1848 -0.0698,-0.3203 0,-0.2893 0.1094,-0.5489 0.3281,-0.7789 0.2194,-0.2308 0.5383,-0.3458 0.9574,-0.3458l0.7091 0c0.2448,0 0.4261,-0.0155 0.5433,-0.0472 -0.0551,0.2286 -0.0903,0.3915 -0.1052,0.4875z"/>
  <path class="fil3 str1" d="M17.9148 54.0954c0.1736,0 0.3302,0.0403 0.4699,0.1214 0.1404,0.0804 0.2484,0.1954 0.326,0.345 0.0769,0.1496 0.1157,0.3231 0.1157,0.5221 0,0.2589 -0.0699,0.5158 -0.2089,0.7705 -0.1389,0.2554 -0.3097,0.4473 -0.5108,0.5771 -0.2011,0.1291 -0.424,0.194 -0.6695,0.194 -0.2823,0 -0.5109,-0.0882 -0.6851,-0.2645 -0.1743,-0.1764 -0.2618,-0.4086 -0.2618,-0.6964 0,-0.2759 0.0699,-0.5419 0.2089,-0.7994 0.1389,-0.2568 0.3104,-0.4494 0.5129,-0.5771 0.2025,-0.1285 0.4367,-0.1927 0.7027,-0.1927zm-0.151 0.1489c-0.1601,0 -0.3069,0.0473 -0.4416,0.1418 -0.1341,0.0946 -0.2442,0.242 -0.3295,0.4424 -0.0854,0.2004 -0.1277,0.4325 -0.1277,0.6971 0,0.3034 0.0663,0.5376 0.2003,0.702 0.1334,0.1651 0.2999,0.247 0.5003,0.247 0.1488,0 0.2892,-0.0487 0.4226,-0.1468 0.1326,-0.0974 0.2427,-0.2519 0.3288,-0.4621 0.0861,-0.2096 0.1291,-0.4516 0.1291,-0.7239 0,-0.283 -0.0663,-0.5031 -0.1976,-0.6604 -0.1319,-0.1581 -0.2935,-0.2371 -0.4847,-0.2371zm2.9605 0.6491l-0.1079 0c0.0155,-0.1446 0.0233,-0.254 0.0233,-0.3288 0,-0.1058 -0.029,-0.1898 -0.0861,-0.2511 -0.0572,-0.0614 -0.1348,-0.0918 -0.2328,-0.0918 -0.151,0 -0.2837,0.0551 -0.3966,0.1644 -0.1128,0.1094 -0.1693,0.2321 -0.1693,0.369 0,0.0727 0.0155,0.139 0.0466,0.1983 0.0303,0.0593 0.0995,0.1418 0.2053,0.2483 0.194,0.1898 0.3217,0.3387 0.3824,0.4459 0.0607,0.108 0.091,0.2124 0.091,0.3147 0,0.1503 -0.0458,0.2949 -0.1376,0.4339 -0.0917,0.139 -0.2265,0.254 -0.405,0.3443 -0.1785,0.0904 -0.3668,0.1355 -0.5651,0.1355 -0.1961,0 -0.3612,-0.0515 -0.4953,-0.1531 -0.1341,-0.1023 -0.2018,-0.2095 -0.2018,-0.3224 0,-0.0607 0.0177,-0.1108 0.0529,-0.151 0.0353,-0.0402 0.0755,-0.06 0.1207,-0.06 0.0473,0 0.0861,0.0184 0.1157,0.0557 0.0197,0.0219 0.0388,0.072 0.0586,0.1489 0.0218,0.0939 0.0486,0.1616 0.0804,0.2039 0.0317,0.0416 0.0755,0.0762 0.1312,0.103 0.0558,0.0268 0.1164,0.0402 0.1828,0.0402 0.1968,0 0.3697,-0.0663 0.5171,-0.1996 0.1468,-0.1327 0.2209,-0.2801 0.2209,-0.441 0,-0.055 -0.0092,-0.1101 -0.0283,-0.1644 -0.0183,-0.0543 -0.0522,-0.1164 -0.1023,-0.1848 -0.0338,-0.0473 -0.1107,-0.1299 -0.2293,-0.2484 -0.1171,-0.1157 -0.1905,-0.1947 -0.2208,-0.2378 -0.043,-0.0621 -0.0748,-0.1241 -0.0953,-0.1869 -0.0204,-0.0628 -0.031,-0.1249 -0.031,-0.187 0,-0.1256 0.0423,-0.2512 0.1263,-0.3782 0.084,-0.127 0.1933,-0.2279 0.3274,-0.3027 0.1347,-0.0755 0.2871,-0.1128 0.4579,-0.1128 0.0853,0 0.1912,0.0134 0.3161,0.0395 0.0719,0.0134 0.134,0.024 0.1862,0.031 -0.0303,0.0896 -0.0536,0.1736 -0.0705,0.2533 -0.0163,0.079 -0.0388,0.2364 -0.0678,0.472zm1.6785 -0.798c0.1736,0 0.3302,0.0403 0.4699,0.1214 0.1404,0.0804 0.2484,0.1954 0.326,0.345 0.0769,0.1496 0.1157,0.3231 0.1157,0.5221 0,0.2589 -0.0699,0.5158 -0.2089,0.7705 -0.1389,0.2554 -0.3097,0.4473 -0.5108,0.5771 -0.2011,0.1291 -0.424,0.194 -0.6695,0.194 -0.2823,0 -0.5109,-0.0882 -0.6851,-0.2645 -0.1743,-0.1764 -0.2618,-0.4086 -0.2618,-0.6964 0,-0.2759 0.0699,-0.5419 0.2089,-0.7994 0.1389,-0.2568 0.3104,-0.4494 0.5129,-0.5771 0.2025,-0.1285 0.4367,-0.1927 0.7027,-0.1927zm-0.151 0.1489c-0.1601,0 -0.3069,0.0473 -0.4416,0.1418 -0.1341,0.0946 -0.2442,0.242 -0.3295,0.4424 -0.0854,0.2004 -0.1277,0.4325 -0.1277,0.6971 0,0.3034 0.0663,0.5376 0.2003,0.702 0.1334,0.1651 0.2999,0.247 0.5003,0.247 0.1488,0 0.2892,-0.0487 0.4226,-0.1468 0.1326,-0.0974 0.2427,-0.2519 0.3288,-0.4621 0.0861,-0.2096 0.1291,-0.4516 0.1291,-0.7239 0,-0.283 -0.0663,-0.5031 -0.1976,-0.6604 -0.1319,-0.1581 -0.2935,-0.2371 -0.4847,-0.2371z"/>
  <path class="fil3 str1" d="M32.8225 20.2152l0.0578 0.2413c0.0537,0.2209 0.1066,0.4135 0.1588,0.5793 0.0529,0.1651 0.187,0.5475 0.4036,1.1472 0.0204,-0.0762 0.0613,-0.2441 0.1234,-0.5045 0.0805,-0.3393 0.1334,-0.5517 0.1595,-0.6385 0.0769,-0.2554 0.1517,-0.4424 0.2229,-0.5623 0.072,-0.12 0.1517,-0.206 0.2399,-0.2582 0.0882,-0.053 0.1884,-0.0791 0.2999,-0.0791 0.0896,0 0.158,0.0177 0.206,0.0515 0.0473,0.0346 0.0713,0.0762 0.0713,0.1242 0,0.0346 -0.0127,0.0649 -0.0388,0.091 -0.0254,0.0261 -0.0551,0.0395 -0.0896,0.0395 -0.0247,0 -0.0537,-0.007 -0.0868,-0.0211 -0.0692,-0.0275 -0.1101,-0.0431 -0.1242,-0.0473 -0.0247,-0.0056 -0.0515,-0.0085 -0.0804,-0.0085 -0.0678,0 -0.1256,0.0233 -0.1736,0.0685 -0.0854,0.0797 -0.1799,0.2808 -0.2822,0.6018 -0.103,0.321 -0.2336,0.834 -0.3916,1.5395l-0.0706 0.3083c-0.1573,-0.3457 -0.2631,-0.5912 -0.3182,-0.7358 -0.0747,-0.1948 -0.1594,-0.4396 -0.254,-0.7359l-0.2279 -0.7155c-0.0275,0.1651 -0.0917,0.4445 -0.1933,0.8361 -0.1009,0.3923 -0.1615,0.6181 -0.1806,0.6773 -0.0635,0.1856 -0.1312,0.3281 -0.2039,0.4276 -0.072,0.0995 -0.151,0.1715 -0.2371,0.2173 -0.0867,0.0452 -0.1813,0.0678 -0.2843,0.0678 -0.1298,0 -0.2357,-0.029 -0.3182,-0.0868 -0.0635,-0.0424 -0.0953,-0.0967 -0.0953,-0.163 0,-0.0289 0.0113,-0.055 0.0353,-0.0776 0.0233,-0.0226 0.0515,-0.0339 0.0847,-0.0339 0.0423,0 0.0889,0.0226 0.1383,0.0677 0.0882,0.0819 0.1686,0.1221 0.242,0.1221 0.0783,0 0.1552,-0.0353 0.2314,-0.1051 0.1129,-0.108 0.2215,-0.333 0.3267,-0.6759 0.1263,-0.4149 0.2483,-0.9412 0.3654,-1.5791 -0.0479,0 -0.1404,0.0134 -0.2765,0.041 -0.1369,0.0275 -0.2505,0.0663 -0.3422,0.1171 -0.0917,0.0501 -0.1623,0.1157 -0.211,0.1961 -0.0487,0.0805 -0.0734,0.1651 -0.0734,0.2533 0,0.0438 0.0064,0.0889 0.0184,0.1341 0.0085,0.0303 0.0268,0.0677 0.0543,0.1115 0.0311,0.0515 0.0473,0.0896 0.0473,0.1164 0,0.0324 -0.012,0.0606 -0.036,0.0846 -0.0247,0.0233 -0.0543,0.0346 -0.0903,0.0346 -0.0522,0 -0.0967,-0.0268 -0.1341,-0.0811 -0.0374,-0.0544 -0.0557,-0.1376 -0.0557,-0.2491 0,-0.1848 0.0466,-0.3422 0.139,-0.4713 0.0931,-0.1298 0.218,-0.2279 0.3732,-0.2935 0.0995,-0.0416 0.2907,-0.0811 0.5751,-0.12 0.1044,-0.0141 0.2032,-0.0317 0.2956,-0.0536zm2.964 0l0.0578 0.2413c0.0537,0.2209 0.1066,0.4135 0.1588,0.5793 0.0529,0.1651 0.187,0.5475 0.4036,1.1472 0.0204,-0.0762 0.0613,-0.2441 0.1234,-0.5045 0.0805,-0.3393 0.1334,-0.5517 0.1595,-0.6385 0.0769,-0.2554 0.1517,-0.4424 0.2229,-0.5623 0.072,-0.12 0.1517,-0.206 0.2399,-0.2582 0.0882,-0.053 0.1884,-0.0791 0.2999,-0.0791 0.0896,0 0.158,0.0177 0.206,0.0515 0.0473,0.0346 0.0713,0.0762 0.0713,0.1242 0,0.0346 -0.0127,0.0649 -0.0388,0.091 -0.0254,0.0261 -0.0551,0.0395 -0.0896,0.0395 -0.0247,0 -0.0537,-0.007 -0.0868,-0.0211 -0.0692,-0.0275 -0.1101,-0.0431 -0.1242,-0.0473 -0.0247,-0.0056 -0.0515,-0.0085 -0.0804,-0.0085 -0.0678,0 -0.1256,0.0233 -0.1736,0.0685 -0.0854,0.0797 -0.1799,0.2808 -0.2822,0.6018 -0.103,0.321 -0.2336,0.834 -0.3916,1.5395l-0.0706 0.3083c-0.1573,-0.3457 -0.2631,-0.5912 -0.3182,-0.7358 -0.0747,-0.1948 -0.1594,-0.4396 -0.254,-0.7359l-0.2279 -0.7155c-0.0275,0.1651 -0.0917,0.4445 -0.1933,0.8361 -0.1009,0.3923 -0.1615,0.6181 -0.1806,0.6773 -0.0635,0.1856 -0.1312,0.3281 -0.2039,0.4276 -0.072,0.0995 -0.151,0.1715 -0.2371,0.2173 -0.0867,0.0452 -0.1813,0.0678 -0.2843,0.0678 -0.1298,0 -0.2357,-0.029 -0.3182,-0.0868 -0.0635,-0.0424 -0.0953,-0.0967 -0.0953,-0.163 0,-0.0289 0.0113,-0.055 0.0353,-0.0776 0.0233,-0.0226 0.0515,-0.0339 0.0847,-0.0339 0.0423,0 0.0889,0.0226 0.1383,0.0677 0.0882,0.0819 0.1686,0.1221 0.242,0.1221 0.0783,0 0.1552,-0.0353 0.2314,-0.1051 0.1129,-0.108 0.2215,-0.333 0.3267,-0.6759 0.1263,-0.4149 0.2483,-0.9412 0.3654,-1.5791 -0.0479,0 -0.1404,0.0134 -0.2765,0.041 -0.1369,0.0275 -0.2505,0.0663 -0.3422,0.1171 -0.0917,0.0501 -0.1623,0.1157 -0.211,0.1961 -0.0487,0.0805 -0.0734,0.1651 -0.0734,0.2533 0,0.0438 0.0064,0.0889 0.0184,0.1341 0.0085,0.0303 0.0268,0.0677 0.0543,0.1115 0.0311,0.0515 0.0473,0.0896 0.0473,0.1164 0,0.0324 -0.012,0.0606 -0.036,0.0846 -0.0247,0.0233 -0.0543,0.0346 -0.0903,0.0346 -0.0522,0 -0.0967,-0.0268 -0.1341,-0.0811 -0.0374,-0.0544 -0.0557,-0.1376 -0.0557,-0.2491 0,-0.1848 0.0466,-0.3422 0.139,-0.4713 0.0931,-0.1298 0.218,-0.2279 0.3732,-0.2935 0.0995,-0.0416 0.2907,-0.0811 0.5751,-0.12 0.1044,-0.0141 0.2032,-0.0317 0.2956,-0.0536zm2.9308 0.0141c0.1736,0 0.3302,0.0403 0.4699,0.1214 0.1404,0.0804 0.2484,0.1954 0.326,0.345 0.0769,0.1496 0.1157,0.3231 0.1157,0.5221 0,0.2589 -0.0699,0.5158 -0.2089,0.7705 -0.1389,0.2554 -0.3097,0.4473 -0.5108,0.5771 -0.2011,0.1291 -0.424,0.194 -0.6695,0.194 -0.2823,0 -0.5109,-0.0882 -0.6851,-0.2645 -0.1743,-0.1764 -0.2618,-0.4086 -0.2618,-0.6964 0,-0.2759 0.0699,-0.5419 0.2089,-0.7994 0.1389,-0.2568 0.3104,-0.4494 0.5129,-0.5771 0.2025,-0.1285 0.4367,-0.1927 0.7027,-0.1927zm-0.151 0.1489c-0.1601,0 -0.3069,0.0473 -0.4416,0.1418 -0.1341,0.0946 -0.2442,0.242 -0.3295,0.4424 -0.0854,0.2004 -0.1277,0.4325 -0.1277,0.6971 0,0.3034 0.0663,0.5376 0.2003,0.702 0.1334,0.1651 0.2999,0.247 0.5003,0.247 0.1488,0 0.2892,-0.0487 0.4226,-0.1468 0.1326,-0.0974 0.2427,-0.2519 0.3288,-0.4621 0.0861,-0.2096 0.1291,-0.4516 0.1291,-0.7239 0,-0.283 -0.0663,-0.5031 -0.1976,-0.6604 -0.1319,-0.1581 -0.2935,-0.2371 -0.4847,-0.2371z"/>
  <path class="fil3 str1" d="M52.2393 20.2152l0.0578 0.2413c0.0537,0.2209 0.1066,0.4135 0.1588,0.5793 0.0529,0.1651 0.187,0.5475 0.4036,1.1472 0.0204,-0.0762 0.0613,-0.2441 0.1234,-0.5045 0.0805,-0.3393 0.1334,-0.5517 0.1595,-0.6385 0.0769,-0.2554 0.1517,-0.4424 0.2229,-0.5623 0.072,-0.12 0.1517,-0.206 0.2399,-0.2582 0.0882,-0.053 0.1884,-0.0791 0.2999,-0.0791 0.0896,0 0.158,0.0177 0.206,0.0515 0.0473,0.0346 0.0713,0.0762 0.0713,0.1242 0,0.0346 -0.0127,0.0649 -0.0388,0.091 -0.0254,0.0261 -0.0551,0.0395 -0.0896,0.0395 -0.0247,0 -0.0537,-0.007 -0.0868,-0.0211 -0.0692,-0.0275 -0.1101,-0.0431 -0.1242,-0.0473 -0.0247,-0.0056 -0.0515,-0.0085 -0.0804,-0.0085 -0.0678,0 -0.1256,0.0233 -0.1736,0.0685 -0.0854,0.0797 -0.1799,0.2808 -0.2822,0.6018 -0.103,0.321 -0.2336,0.834 -0.3916,1.5395l-0.0706 0.3083c-0.1573,-0.3457 -0.2631,-0.5912 -0.3182,-0.7358 -0.0747,-0.1948 -0.1594,-0.4396 -0.254,-0.7359l-0.2279 -0.7155c-0.0275,0.1651 -0.0917,0.4445 -0.1933,0.8361 -0.1009,0.3923 -0.1615,0.6181 -0.1806,0.6773 -0.0635,0.1856 -0.1312,0.3281 -0.2039,0.4276 -0.072,0.0995 -0.151,0.1715 -0.2371,0.2173 -0.0867,0.0452 -0.1813,0.0678 -0.2843,0.0678 -0.1298,0 -0.2357,-0.029 -0.3182,-0.0868 -0.0635,-0.0424 -0.0953,-0.0967 -0.0953,-0.163 0,-0.0289 0.0113,-0.055 0.0353,-0.0776 0.0233,-0.0226 0.0515,-0.0339 0.0847,-0.0339 0.0423,0 0.0889,0.0226 0.1383,0.0677 0.0882,0.0819 0.1686,0.1221 0.242,0.1221 0.0783,0 0.1552,-0.0353 0.2314,-0.1051 0.1129,-0.108 0.2215,-0.333 0.3267,-0.6759 0.1263,-0.4149 0.2483,-0.9412 0.3654,-1.5791 -0.0479,0 -0.1404,0.0134 -0.2765,0.041 -0.1369,0.0275 -0.2505,0.0663 -0.3422,0.1171 -0.0917,0.0501 -0.1623,0.1157 -0.211,0.1961 -0.0487,0.0805 -0.0734,0.1651 -0.0734,0.2533 0,0.0438 0.0064,0.0889 0.0184,0.1341 0.0085,0.0303 0.0268,0.0677 0.0543,0.1115 0.0311,0.0515 0.0473,0.0896 0.0473,0.1164 0,0.0324 -0.012,0.0606 -0.036,0.0846 -0.0247,0.0233 -0.0543,0.0346 -0.0903,0.0346 -0.0522,0 -0.0967,-0.0268 -0.1341,-0.0811 -0.0374,-0.0544 -0.0557,-0.1376 -0.0557,-0.2491 0,-0.1848 0.0466,-0.3422 0.139,-0.4713 0.0931,-0.1298 0.218,-0.2279 0.3732,-0.2935 0.0995,-0.0416 0.2907,-0.0811 0.5751,-0.12 0.1044,-0.0141 0.2032,-0.0317 0.2956,-0.0536zm2.964 0l0.0578 0.2413c0.0537,0.2209 0.1066,0.4135 0.1588,0.5793 0.0529,0.1651 0.187,0.5475 0.4036,1.1472 0.0204,-0.0762 0.0613,-0.2441 0.1234,-0.5045 0.0805,-0.3393 0.1334,-0.5517 0.1595,-0.6385 0.0769,-0.2554 0.1517,-0.4424 0.2229,-0.5623 0.072,-0.12 0.1517,-0.206 0.2399,-0.2582 0.0882,-0.053 0.1884,-0.0791 0.2999,-0.0791 0.0896,0 0.158,0.0177 0.206,0.0515 0.0473,0.0346 0.0713,0.0762 0.0713,0.1242 0,0.0346 -0.0127,0.0649 -0.0388,0.091 -0.0254,0.0261 -0.0551,0.0395 -0.0896,0.0395 -0.0247,0 -0.0537,-0.007 -0.0868,-0.0211 -0.0692,-0.0275 -0.1101,-0.0431 -0.1242,-0.0473 -0.0247,-0.0056 -0.0515,-0.0085 -0.0804,-0.0085 -0.0678,0 -0.1256,0.0233 -0.1736,0.0685 -0.0854,0.0797 -0.1799,0.2808 -0.2822,0.6018 -0.103,0.321 -0.2336,0.834 -0.3916,1.5395l-0.0706 0.3083c-0.1573,-0.3457 -0.2631,-0.5912 -0.3182,-0.7358 -0.0747,-0.1948 -0.1594,-0.4396 -0.254,-0.7359l-0.2279 -0.7155c-0.0275,0.1651 -0.0917,0.4445 -0.1933,0.8361 -0.1009,0.3923 -0.1615,0.6181 -0.1806,0.6773 -0.0635,0.1856 -0.1312,0.3281 -0.2039,0.4276 -0.072,0.0995 -0.151,0.1715 -0.2371,0.2173 -0.0867,0.0452 -0.1813,0.0678 -0.2843,0.0678 -0.1298,0 -0.2357,-0.029 -0.3182,-0.0868 -0.0635,-0.0424 -0.0953,-0.0967 -0.0953,-0.163 0,-0.0289 0.0113,-0.055 0.0353,-0.0776 0.0233,-0.0226 0.0515,-0.0339 0.0847,-0.0339 0.0423,0 0.0889,0.0226 0.1383,0.0677 0.0882,0.0819 0.1686,0.1221 0.242,0.1221 0.0783,0 0.1552,-0.0353 0.2314,-0.1051 0.1129,-0.108 0.2215,-0.333 0.3267,-0.6759 0.1263,-0.4149 0.2483,-0.9412 0.3654,-1.5791 -0.0479,0 -0.1404,0.0134 -0.2765,0.041 -0.1369,0.0275 -0.2505,0.0663 -0.3422,0.1171 -0.0917,0.0501 -0.1623,0.1157 -0.211,0.1961 -0.0487,0.0805 -0.0734,0.1651 -0.0734,0.2533 0,0.0438 0.0064,0.0889 0.0184,0.1341 0.0085,0.0303 0.0268,0.0677 0.0543,0.1115 0.0311,0.0515 0.0473,0.0896 0.0473,0.1164 0,0.0324 -0.012,0.0606 -0.036,0.0846 -0.0247,0.0233 -0.0543,0.0346 -0.0903,0.0346 -0.0522,0 -0.0967,-0.0268 -0.1341,-0.0811 -0.0374,-0.0544 -0.0557,-0.1376 -0.0557,-0.2491 0,-0.1848 0.0466,-0.3422 0.139,-0.4713 0.0931,-0.1298 0.218,-0.2279 0.3732,-0.2935 0.0995,-0.0416 0.2907,-0.0811 0.5751,-0.12 0.1044,-0.0141 0.2032,-0.0317 0.2956,-0.0536zm3.7845 0.5059l-0.11 0c0.0113,-0.0698 0.0169,-0.1256 0.0169,-0.1672 0,-0.055 -0.0233,-0.091 -0.0691,-0.1087 -0.0466,-0.0169 -0.2202,-0.0254 -0.5221,-0.0254l-0.302 0.0022 -0.2293 0.9136 0.4282 0c0.1348,0 0.2181,-0.0105 0.2491,-0.0303 0.031,-0.0198 0.0529,-0.0698 0.067,-0.1496l0.1179 0c-0.0445,0.1665 -0.0833,0.35 -0.1179,0.5496l-0.1058 0c0.007,-0.0649 0.0106,-0.115 0.0106,-0.1509 0,-0.0149 -0.0099,-0.0339 -0.0289,-0.0558 -0.0099,-0.0113 -0.0276,-0.0183 -0.0537,-0.0226 -0.0374,-0.007 -0.0952,-0.0105 -0.1735,-0.0105l-0.4241 0c-0.1227,0.4684 -0.2497,0.836 -0.3824,1.102 0.1284,-0.0402 0.242,-0.0599 0.3415,-0.0599 0.1651,0 0.3676,0.0261 0.6075,0.0783 0.127,0.0289 0.2131,0.0437 0.2582,0.0437 0.0607,0 0.1094,-0.0155 0.1468,-0.0458 0.0374,-0.0304 0.0557,-0.065 0.0557,-0.1031 0,-0.0225 -0.0085,-0.0578 -0.0268,-0.1079 -0.0106,-0.0346 -0.0162,-0.0663 -0.0162,-0.0967 0,-0.0317 0.0127,-0.0599 0.0381,-0.0853 0.0254,-0.0247 0.0557,-0.0367 0.0917,-0.0367 0.043,0 0.0783,0.0162 0.1065,0.0494 0.0283,0.0331 0.0424,0.0769 0.0424,0.1326 0,0.1171 -0.0515,0.2194 -0.1538,0.3076 -0.1031,0.0882 -0.2378,0.1327 -0.4064,0.1327 -0.0882,0 -0.1997,-0.0078 -0.3345,-0.0233 -0.2963,-0.0332 -0.5228,-0.0494 -0.678,-0.0494 -0.2039,0 -0.4424,0.0162 -0.7154,0.0494l0.0331 -0.1136c0.1623,-0.0452 0.2583,-0.079 0.2872,-0.1002 0.0289,-0.0212 0.0529,-0.0529 0.0727,-0.0938 0.0656,-0.1313 0.1516,-0.3937 0.2568,-0.7874 0.1058,-0.3944 0.2131,-0.8107 0.3217,-1.2488 -0.1651,0 -0.3217,0.0395 -0.4692,0.1178 -0.1474,0.0783 -0.2624,0.1806 -0.345,0.3069 -0.0825,0.1263 -0.1242,0.2589 -0.1242,0.3979 0,0.0593 0.0057,0.1108 0.0177,0.1552 0.0113,0.0438 0.0381,0.1059 0.0797,0.1856 0.0261,0.0487 0.0388,0.0875 0.0388,0.1178 0,0.0304 -0.0127,0.0579 -0.0381,0.0812 -0.0254,0.0233 -0.0572,0.0352 -0.0938,0.0352 -0.0537,0 -0.0967,-0.0275 -0.1285,-0.0811 -0.0465,-0.0783 -0.0698,-0.1848 -0.0698,-0.3203 0,-0.2893 0.1094,-0.5489 0.3281,-0.7789 0.2194,-0.2308 0.5383,-0.3458 0.9574,-0.3458l0.7091 0c0.2448,0 0.4261,-0.0155 0.5433,-0.0472 -0.0551,0.2286 -0.0903,0.3915 -0.1052,0.4875z"/>
  <path class="fil3 str1" d="M53.4915 67.8733l-0.1079 0c0.0155,-0.1446 0.0233,-0.254 0.0233,-0.3288 0,-0.1058 -0.029,-0.1898 -0.0861,-0.2511 -0.0572,-0.0614 -0.1348,-0.0918 -0.2328,-0.0918 -0.151,0 -0.2837,0.0551 -0.3966,0.1644 -0.1128,0.1094 -0.1693,0.2321 -0.1693,0.369 0,0.0727 0.0155,0.139 0.0466,0.1983 0.0303,0.0593 0.0995,0.1418 0.2053,0.2483 0.194,0.1898 0.3217,0.3387 0.3824,0.4459 0.0607,0.108 0.091,0.2124 0.091,0.3147 0,0.1503 -0.0458,0.2949 -0.1376,0.4339 -0.0917,0.139 -0.2265,0.254 -0.405,0.3443 -0.1785,0.0904 -0.3668,0.1355 -0.5651,0.1355 -0.1961,0 -0.3612,-0.0515 -0.4953,-0.1531 -0.1341,-0.1023 -0.2018,-0.2095 -0.2018,-0.3224 0,-0.0607 0.0177,-0.1108 0.0529,-0.151 0.0353,-0.0402 0.0755,-0.06 0.1207,-0.06 0.0473,0 0.0861,0.0184 0.1157,0.0557 0.0197,0.0219 0.0388,0.072 0.0586,0.1489 0.0218,0.0939 0.0486,0.1616 0.0804,0.2039 0.0317,0.0416 0.0755,0.0762 0.1312,0.103 0.0558,0.0268 0.1164,0.0402 0.1828,0.0402 0.1968,0 0.3697,-0.0663 0.5171,-0.1996 0.1468,-0.1327 0.2209,-0.2801 0.2209,-0.441 0,-0.055 -0.0092,-0.1101 -0.0283,-0.1644 -0.0183,-0.0543 -0.0522,-0.1164 -0.1023,-0.1848 -0.0338,-0.0473 -0.1107,-0.1299 -0.2293,-0.2484 -0.1171,-0.1157 -0.1905,-0.1947 -0.2208,-0.2378 -0.043,-0.0621 -0.0748,-0.1241 -0.0953,-0.1869 -0.0204,-0.0628 -0.031,-0.1249 -0.031,-0.187 0,-0.1256 0.0423,-0.2512 0.1263,-0.3782 0.084,-0.127 0.1933,-0.2279 0.3274,-0.3027 0.1347,-0.0755 0.2871,-0.1128 0.4579,-0.1128 0.0853,0 0.1912,0.0134 0.3161,0.0395 0.0719,0.0134 0.134,0.024 0.1862,0.031 -0.0303,0.0896 -0.0536,0.1736 -0.0705,0.2533 -0.0163,0.079 -0.0388,0.2364 -0.0678,0.472zm1.9473 0l-0.1079 0c0.0155,-0.1446 0.0233,-0.254 0.0233,-0.3288 0,-0.1058 -0.029,-0.1898 -0.0861,-0.2511 -0.0572,-0.0614 -0.1348,-0.0918 -0.2328,-0.0918 -0.151,0 -0.2837,0.0551 -0.3966,0.1644 -0.1128,0.1094 -0.1693,0.2321 -0.1693,0.369 0,0.0727 0.0155,0.139 0.0466,0.1983 0.0303,0.0593 0.0995,0.1418 0.2053,0.2483 0.194,0.1898 0.3217,0.3387 0.3824,0.4459 0.0607,0.108 0.091,0.2124 0.091,0.3147 0,0.1503 -0.0458,0.2949 -0.1376,0.4339 -0.0917,0.139 -0.2265,0.254 -0.405,0.3443 -0.1785,0.0904 -0.3668,0.1355 -0.5651,0.1355 -0.1961,0 -0.3612,-0.0515 -0.4953,-0.1531 -0.1341,-0.1023 -0.2018,-0.2095 -0.2018,-0.3224 0,-0.0607 0.0177,-0.1108 0.0529,-0.151 0.0353,-0.0402 0.0755,-0.06 0.1207,-0.06 0.0473,0 0.0861,0.0184 0.1157,0.0557 0.0197,0.0219 0.0388,0.072 0.0586,0.1489 0.0218,0.0939 0.0486,0.1616 0.0804,0.2039 0.0317,0.0416 0.0755,0.0762 0.1312,0.103 0.0558,0.0268 0.1164,0.0402 0.1828,0.0402 0.1968,0 0.3697,-0.0663 0.5171,-0.1996 0.1468,-0.1327 0.2209,-0.2801 0.2209,-0.441 0,-0.055 -0.0092,-0.1101 -0.0283,-0.1644 -0.0183,-0.0543 -0.0522,-0.1164 -0.1023,-0.1848 -0.0338,-0.0473 -0.1107,-0.1299 -0.2293,-0.2484 -0.1171,-0.1157 -0.1905,-0.1947 -0.2208,-0.2378 -0.043,-0.0621 -0.0748,-0.1241 -0.0953,-0.1869 -0.0204,-0.0628 -0.031,-0.1249 -0.031,-0.187 0,-0.1256 0.0423,-0.2512 0.1263,-0.3782 0.084,-0.127 0.1933,-0.2279 0.3274,-0.3027 0.1347,-0.0755 0.2871,-0.1128 0.4579,-0.1128 0.0853,0 0.1912,0.0134 0.3161,0.0395 0.0719,0.0134 0.134,0.024 0.1862,0.031 -0.0303,0.0896 -0.0536,0.1736 -0.0705,0.2533 -0.0163,0.079 -0.0388,0.2364 -0.0678,0.472zm2.5322 -0.3062l-0.11 0c0.0113,-0.0698 0.0169,-0.1256 0.0169,-0.1672 0,-0.055 -0.0233,-0.091 -0.0691,-0.1087 -0.0466,-0.0169 -0.2202,-0.0254 -0.5221,-0.0254l-0.302 0.0022 -0.2293 0.9136 0.4282 0c0.1348,0 0.2181,-0.0105 0.2491,-0.0303 0.031,-0.0198 0.0529,-0.0698 0.067,-0.1496l0.1179 0c-0.0445,0.1665 -0.0833,0.35 -0.1179,0.5496l-0.1058 0c0.007,-0.0649 0.0106,-0.115 0.0106,-0.1509 0,-0.0149 -0.0099,-0.0339 -0.0289,-0.0558 -0.0099,-0.0113 -0.0276,-0.0183 -0.0537,-0.0226 -0.0374,-0.007 -0.0952,-0.0105 -0.1735,-0.0105l-0.4241 0c-0.1227,0.4684 -0.2497,0.836 -0.3824,1.102 0.1284,-0.0402 0.242,-0.0599 0.3415,-0.0599 0.1651,0 0.3676,0.0261 0.6075,0.0783 0.127,0.0289 0.2131,0.0437 0.2582,0.0437 0.0607,0 0.1094,-0.0155 0.1468,-0.0458 0.0374,-0.0304 0.0557,-0.065 0.0557,-0.1031 0,-0.0225 -0.0085,-0.0578 -0.0268,-0.1079 -0.0106,-0.0346 -0.0162,-0.0663 -0.0162,-0.0967 0,-0.0317 0.0127,-0.0599 0.0381,-0.0853 0.0254,-0.0247 0.0557,-0.0367 0.0917,-0.0367 0.043,0 0.0783,0.0162 0.1065,0.0494 0.0283,0.0331 0.0424,0.0769 0.0424,0.1326 0,0.1171 -0.0515,0.2194 -0.1538,0.3076 -0.1031,0.0882 -0.2378,0.1327 -0.4064,0.1327 -0.0882,0 -0.1997,-0.0078 -0.3345,-0.0233 -0.2963,-0.0332 -0.5228,-0.0494 -0.678,-0.0494 -0.2039,0 -0.4424,0.0162 -0.7154,0.0494l0.0331 -0.1136c0.1623,-0.0452 0.2583,-0.079 0.2872,-0.1002 0.0289,-0.0212 0.0529,-0.0529 0.0727,-0.0938 0.0656,-0.1313 0.1516,-0.3937 0.2568,-0.7874 0.1058,-0.3944 0.2131,-0.8107 0.3217,-1.2488 -0.1651,0 -0.3217,0.0395 -0.4692,0.1178 -0.1474,0.0783 -0.2624,0.1806 -0.345,0.3069 -0.0825,0.1263 -0.1242,0.2589 -0.1242,0.3979 0,0.0593 0.0057,0.1108 0.0177,0.1552 0.0113,0.0438 0.0381,0.1059 0.0797,0.1856 0.0261,0.0487 0.0388,0.0875 0.0388,0.1178 0,0.0304 -0.0127,0.0579 -0.0381,0.0812 -0.0254,0.0233 -0.0572,0.0352 -0.0938,0.0352 -0.0537,0 -0.0967,-0.0275 -0.1285,-0.0811 -0.0465,-0.0783 -0.0698,-0.1848 -0.0698,-0.3203 0,-0.2893 0.1094,-0.5489 0.3281,-0.7789 0.2194,-0.2308 0.5383,-0.3458 0.9574,-0.3458l0.7091 0c0.2448,0 0.4261,-0.0155 0.5433,-0.0472 -0.0551,0.2286 -0.0903,0.3915 -0.1052,0.4875z"/>
  <path class="fil3 str1" d="M34.0746 67.8743l-0.1079 0c0.0155,-0.1446 0.0233,-0.254 0.0233,-0.3288 0,-0.1058 -0.029,-0.1898 -0.0861,-0.2511 -0.0572,-0.0614 -0.1348,-0.0918 -0.2328,-0.0918 -0.151,0 -0.2837,0.0551 -0.3966,0.1644 -0.1128,0.1094 -0.1693,0.2321 -0.1693,0.369 0,0.0727 0.0155,0.139 0.0466,0.1983 0.0303,0.0593 0.0995,0.1418 0.2053,0.2483 0.194,0.1898 0.3217,0.3387 0.3824,0.4459 0.0607,0.108 0.091,0.2124 0.091,0.3147 0,0.1503 -0.0458,0.2949 -0.1376,0.4339 -0.0917,0.139 -0.2265,0.254 -0.405,0.3443 -0.1785,0.0904 -0.3668,0.1355 -0.5651,0.1355 -0.1961,0 -0.3612,-0.0515 -0.4953,-0.1531 -0.1341,-0.1023 -0.2018,-0.2095 -0.2018,-0.3224 0,-0.0607 0.0177,-0.1108 0.0529,-0.151 0.0353,-0.0402 0.0755,-0.06 0.1207,-0.06 0.0473,0 0.0861,0.0184 0.1157,0.0557 0.0197,0.0219 0.0388,0.072 0.0586,0.1489 0.0218,0.0939 0.0486,0.1616 0.0804,0.2039 0.0317,0.0416 0.0755,0.0762 0.1312,0.103 0.0558,0.0268 0.1164,0.0402 0.1828,0.0402 0.1968,0 0.3697,-0.0663 0.5171,-0.1996 0.1468,-0.1327 0.2209,-0.2801 0.2209,-0.441 0,-0.055 -0.0092,-0.1101 -0.0283,-0.1644 -0.0183,-0.0543 -0.0522,-0.1164 -0.1023,-0.1848 -0.0338,-0.0473 -0.1107,-0.1299 -0.2293,-0.2484 -0.1171,-0.1157 -0.1905,-0.1947 -0.2208,-0.2378 -0.043,-0.0621 -0.0748,-0.1241 -0.0953,-0.1869 -0.0204,-0.0628 -0.031,-0.1249 -0.031,-0.187 0,-0.1256 0.0423,-0.2512 0.1263,-0.3782 0.084,-0.127 0.1933,-0.2279 0.3274,-0.3027 0.1347,-0.0755 0.2871,-0.1128 0.4579,-0.1128 0.0853,0 0.1912,0.0134 0.3161,0.0395 0.0719,0.0134 0.134,0.024 0.1862,0.031 -0.0303,0.0896 -0.0536,0.1736 -0.0705,0.2533 -0.0163,0.079 -0.0388,0.2364 -0.0678,0.472zm1.9473 0l-0.1079 0c0.0155,-0.1446 0.0233,-0.254 0.0233,-0.3288 0,-0.1058 -0.029,-0.1898 -0.0861,-0.2511 -0.0572,-0.0614 -0.1348,-0.0918 -0.2328,-0.0918 -0.151,0 -0.2837,0.0551 -0.3966,0.1644 -0.1128,0.1094 -0.1693,0.2321 -0.1693,0.369 0,0.0727 0.0155,0.139 0.0466,0.1983 0.0303,0.0593 0.0995,0.1418 0.2053,0.2483 0.194,0.1898 0.3217,0.3387 0.3824,0.4459 0.0607,0.108 0.091,0.2124 0.091,0.3147 0,0.1503 -0.0458,0.2949 -0.1376,0.4339 -0.0917,0.139 -0.2265,0.254 -0.405,0.3443 -0.1785,0.0904 -0.3668,0.1355 -0.5651,0.1355 -0.1961,0 -0.3612,-0.0515 -0.4953,-0.1531 -0.1341,-0.1023 -0.2018,-0.2095 -0.2018,-0.3224 0,-0.0607 0.0177,-0.1108 0.0529,-0.151 0.0353,-0.0402 0.0755,-0.06 0.1207,-0.06 0.0473,0 0.0861,0.0184 0.1157,0.0557 0.0197,0.0219 0.0388,0.072 0.0586,0.1489 0.0218,0.0939 0.0486,0.1616 0.0804,0.2039 0.0317,0.0416 0.0755,0.0762 0.1312,0.103 0.0558,0.0268 0.1164,0.0402 0.1828,0.0402 0.1968,0 0.3697,-0.0663 0.5171,-0.1996 0.1468,-0.1327 0.2209,-0.2801 0.2209,-0.441 0,-0.055 -0.0092,-0.1101 -0.0283,-0.1644 -0.0183,-0.0543 -0.0522,-0.1164 -0.1023,-0.1848 -0.0338,-0.0473 -0.1107,-0.1299 -0.2293,-0.2484 -0.1171,-0.1157 -0.1905,-0.1947 -0.2208,-0.2378 -0.043,-0.0621 -0.0748,-0.1241 -0.0953,-0.1869 -0.0204,-0.0628 -0.031,-0.1249 -0.031,-0.187 0,-0.1256 0.0423,-0.2512 0.1263,-0.3782 0.084,-0.127 0.1933,-0.2279 0.3274,-0.3027 0.1347,-0.0755 0.2871,-0.1128 0.4579,-0.1128 0.0853,0 0.1912,0.0134 0.3161,0.0395 0.0719,0.0134 0.134,0.024 0.1862,0.031 -0.0303,0.0896 -0.0536,0.1736 -0.0705,0.2533 -0.0163,0.079 -0.0388,0.2364 -0.0678,0.472zm1.6785 -0.798c0.1736,0 0.3302,0.0403 0.4699,0.1214 0.1404,0.0804 0.2484,0.1954 0.326,0.345 0.0769,0.1496 0.1157,0.3231 0.1157,0.5221 0,0.2589 -0.0699,0.5158 -0.2089,0.7705 -0.1389,0.2554 -0.3097,0.4473 -0.5108,0.5771 -0.2011,0.1291 -0.424,0.194 -0.6695,0.194 -0.2823,0 -0.5109,-0.0882 -0.6851,-0.2645 -0.1743,-0.1764 -0.2618,-0.4086 -0.2618,-0.6964 0,-0.2759 0.0699,-0.5419 0.2089,-0.7994 0.1389,-0.2568 0.3104,-0.4494 0.5129,-0.5771 0.2025,-0.1285 0.4367,-0.1927 0.7027,-0.1927zm-0.151 0.1489c-0.1601,0 -0.3069,0.0473 -0.4416,0.1418 -0.1341,0.0946 -0.2442,0.242 -0.3295,0.4424 -0.0854,0.2004 -0.1277,0.4325 -0.1277,0.6971 0,0.3034 0.0663,0.5376 0.2003,0.702 0.1334,0.1651 0.2999,0.247 0.5003,0.247 0.1488,0 0.2892,-0.0487 0.4226,-0.1468 0.1326,-0.0974 0.2427,-0.2519 0.3288,-0.4621 0.0861,-0.2096 0.1291,-0.4516 0.1291,-0.7239 0,-0.283 -0.0663,-0.5031 -0.1976,-0.6604 -0.1319,-0.1581 -0.2935,-0.2371 -0.4847,-0.2371z"/>
 </g>
</svg>
